<svg version="1.2" baseProfile="tiny-ps" xmlns="http://www.w3.org/2000/svg" viewBox="0 0 47 46" width="47" height="46">
	<title>Education Portal – 4</title>
	<style>
		tspan { white-space:pre }
		.shp0 { opacity: 0.302;fill: #e89fa1 } 
		.shp1 { fill: #e89fa1 } 
	</style>
	<g id="Education Portal – 4">
		<g id="Group 154">
			<g id="Group 147">
				<path id="Rectangle 162" class="shp0" d="M0 5C0 2.24 2.24 0 5 0L41 0C43.76 0 46 2.24 46 5L46 40C46 42.76 43.76 45 41 45L5 45C2.24 45 0 42.76 0 40L0 5Z" />
				<g id="swift">
					<path id="Path 1303" fill-rule="evenodd" class="shp1" d="M38.08 33.82C38.08 34.43 38.01 35.05 37.87 35.64C37.83 35.83 37.69 35.97 37.5 36.03C37.32 36.08 37.12 36.02 36.99 35.89C36.44 35.32 34.88 34.07 33.74 33.74C32.32 33.32 31.67 33.99 31.67 33.99C30.23 35.33 27.66 36.34 24.53 36.34C21.5 36.34 17.94 35.39 14.36 32.89C11.67 31.01 9.57 29.28 8.04 26.95C7.91 26.74 7.93 26.47 8.11 26.3C8.28 26.12 8.55 26.1 8.76 26.23C8.84 26.29 16.84 31.46 23.86 28.31C20.82 25.73 14.64 20.08 10.93 13.99C10.8 13.77 10.84 13.49 11.04 13.32C11.23 13.16 11.51 13.16 11.71 13.32C15.45 16.45 17.56 18.18 19.47 19.54C16.82 16.3 14.36 12.57 14.23 12.36C14.08 12.14 14.12 11.86 14.32 11.68C14.51 11.51 14.81 11.51 15 11.68C15.09 11.76 23.89 19.43 28.75 22.72C30.38 19.07 29.6 14.4 26.57 9.78C26.43 9.57 26.46 9.29 26.64 9.12C26.82 8.95 27.1 8.93 27.3 9.07C34.33 14.05 37.89 22.08 35.89 28.29C37.3 29.79 38.08 31.74 38.08 33.82ZM37.04 33.82C37.04 31.91 36.29 30.13 34.93 28.8C34.79 28.66 34.74 28.45 34.81 28.26C36.65 23.07 34.16 16.4 28.82 11.61C30.99 15.98 31.22 20.29 29.42 23.72C29.35 23.85 29.23 23.94 29.09 23.98C28.95 24.01 28.8 23.99 28.68 23.91C25.6 21.92 20.6 17.8 17.38 15.09C18.95 17.26 21.06 20.02 22.85 21.75C23.04 21.94 23.06 22.23 22.9 22.44C22.74 22.65 22.44 22.7 22.22 22.57C19.43 20.9 17.67 19.6 13.89 16.48C17.77 21.66 22.87 26.14 25.14 28.03C25.27 28.14 25.34 28.31 25.32 28.48C25.3 28.66 25.2 28.81 25.05 28.89C21.84 30.6 17.91 30.83 13.66 29.56C12.42 29.18 11.33 28.74 10.46 28.33C11.69 29.64 13.19 30.8 14.96 32.04C21.76 36.8 28.39 35.62 30.92 33.27C30.93 33.25 31.96 32.14 34.03 32.74C35.05 33.04 36.22 33.85 37.01 34.5C37.03 34.27 37.04 34.05 37.04 33.82Z" />
				</g>
			</g>
		</g>
	</g>
</svg>