<svg version="1.2" baseProfile="tiny-ps" xmlns="http://www.w3.org/2000/svg" viewBox="0 0 46 46" width="46" height="46">
	<title>Education Portal – 4</title>
	<style>
		tspan { white-space:pre }
		.shp0 { opacity: 0.302;fill: #d7b556 } 
		.shp1 { fill: #d7b556 } 
	</style>
	<g id="Education Portal – 4">
		<g id="Group 155">
			<g id="Group 151">
				<path id="Rectangle 162" class="shp0" d="M1 6C1 3.24 3.24 1 6 1L41 1C43.76 1 46 3.24 46 6L46 41C46 43.76 43.76 46 41 46L6 46C3.24 46 1 43.76 1 41L1 6Z" />
				<g id="swift">
					<path id="Path 1303" fill-rule="evenodd" class="shp1" d="M37.97 34.52C37.97 35.13 37.9 35.74 37.76 36.33C37.72 36.51 37.58 36.65 37.4 36.7C37.22 36.75 37.03 36.7 36.9 36.57C36.35 36.01 34.81 34.77 33.68 34.44C32.28 34.03 31.64 34.69 31.63 34.7C30.22 36.01 27.68 37.01 24.58 37.01C21.59 37.01 18.07 36.08 14.54 33.6C11.89 31.75 9.81 30.04 8.3 27.74C8.16 27.53 8.19 27.27 8.36 27.09C8.53 26.92 8.8 26.89 9.01 27.03C9.09 27.08 16.99 32.19 23.92 29.09C20.92 26.53 14.82 20.95 11.15 14.93C11.02 14.72 11.06 14.44 11.25 14.28C11.44 14.11 11.73 14.11 11.92 14.27C15.62 17.37 17.7 19.07 19.58 20.42C16.97 17.21 14.54 13.53 14.41 13.33C14.26 13.11 14.3 12.83 14.5 12.66C14.69 12.49 14.98 12.49 15.17 12.66C15.26 12.74 23.95 20.31 28.76 23.56C30.37 19.96 29.6 15.34 26.6 10.78C26.46 10.57 26.49 10.3 26.67 10.12C26.85 9.95 27.12 9.93 27.32 10.07C34.26 15 37.78 22.93 35.81 29.07C37.2 30.55 37.97 32.47 37.97 34.52ZM36.94 34.52C36.94 32.64 36.2 30.88 34.86 29.57C34.72 29.43 34.67 29.22 34.74 29.03C36.56 23.91 34.1 17.31 28.82 12.58C30.96 16.9 31.2 21.16 29.42 24.54C29.35 24.67 29.23 24.77 29.09 24.8C28.95 24.84 28.8 24.81 28.68 24.74C25.64 22.77 20.7 18.7 17.53 16.02C19.07 18.17 21.16 20.89 22.92 22.6C23.11 22.78 23.13 23.08 22.97 23.28C22.81 23.49 22.52 23.54 22.3 23.41C19.55 21.76 17.81 20.48 14.07 17.4C17.91 22.51 22.94 26.94 25.18 28.81C25.32 28.92 25.38 29.08 25.37 29.25C25.35 29.42 25.25 29.57 25.1 29.65C21.93 31.35 18.04 31.57 13.85 30.31C12.63 29.94 11.55 29.5 10.68 29.1C11.9 30.39 13.38 31.54 15.13 32.76C21.85 37.47 28.4 36.3 30.9 33.98C30.91 33.96 31.93 32.86 33.97 33.46C34.97 33.75 36.13 34.55 36.91 35.2C36.93 34.97 36.94 34.75 36.94 34.52Z" />
				</g>
			</g>
		</g>
	</g>
</svg>