<svg version="1.2" baseProfile="tiny-ps" xmlns="http://www.w3.org/2000/svg" viewBox="0 0 16 17" width="16" height="17">
	<title>Education Portal – 4</title>
	<style>
		tspan { white-space:pre }
		.shp0 { fill: #bcbcbc } 
	</style>
	<g id="Education Portal – 4">
		<g id="Group 158">
			<g id="Group 40">
				<g id="help">
					<path id="Path 172" class="shp0" d="M16 11.02C16 8.76 14.7 6.74 12.76 5.76C12.7 10.1 9.18 13.61 4.84 13.67C5.83 15.62 7.85 16.92 10.11 16.92C11.17 16.92 12.2 16.63 13.11 16.1L15.97 16.89L15.18 14.02C15.72 13.11 16 12.08 16 11.02Z" />
					<path id="Path 173" fill-rule="evenodd" class="shp0" d="M14.3 7.88C14.3 11.71 11.09 14.84 7.15 14.84C5.86 14.84 4.61 14.5 3.51 13.87L0.03 14.81L0.99 11.41C0.34 10.34 0 9.13 0 7.88C0 4.04 3.21 0.92 7.15 0.92C11.09 0.92 14.3 4.04 14.3 7.88ZM6.05 6.26C6.05 5.67 6.54 5.19 7.15 5.19C7.75 5.19 8.24 5.67 8.24 6.26C8.24 6.56 8.12 6.84 7.89 7.04L6.6 8.19L6.6 9.5L7.7 9.5L7.7 8.66L8.63 7.83C9.08 7.43 9.34 6.85 9.34 6.26C9.34 5.08 8.36 4.12 7.15 4.12C5.94 4.12 4.95 5.08 4.95 6.26L6.05 6.26ZM6.6 11.63L7.7 11.63L7.7 10.56L6.6 10.56L6.6 11.63Z" />
				</g>
			</g>
		</g>
	</g>
</svg>