<svg version="1.2" baseProfile="tiny-ps" xmlns="http://www.w3.org/2000/svg" viewBox="0 0 17 14" width="17" height="14">
	<title>Education Portal – 4</title>
	<style>
		tspan { white-space:pre }
		.shp0 { fill: #bcbcbc } 
	</style>
	<g id="Education Portal – 4">
		<g id="Group 158">
			<g id="Group 36">
				<g id="megaphone(1)">
					<g id="Group 9">
						<g id="Group 8">
							<path id="Path 155" class="shp0" d="M15.53 5.89L14.09 5.89C13.83 5.89 13.62 6.1 13.62 6.35C13.62 6.61 13.83 6.82 14.09 6.82L15.53 6.82C15.79 6.82 16 6.61 16 6.35C16 6.1 15.79 5.89 15.53 5.89Z" />
						</g>
					</g>
					<g id="Group 11">
						<g id="Group 10">
							<path id="Path 156" class="shp0" d="M14.89 8.84L13.96 7.9C13.77 7.71 13.48 7.71 13.29 7.9C13.11 8.08 13.11 8.38 13.29 8.56L14.23 9.5C14.41 9.68 14.71 9.68 14.89 9.5C15.08 9.32 15.08 9.02 14.89 8.84Z" />
						</g>
					</g>
					<g id="Group 13">
						<g id="Group 12">
							<path id="Path 157" class="shp0" d="M14.89 3.21C14.71 3.03 14.41 3.03 14.23 3.21L13.29 4.15C13.11 4.33 13.11 4.63 13.29 4.81C13.48 4.99 13.77 4.99 13.96 4.81L14.89 3.87C15.08 3.69 15.08 3.39 14.89 3.21Z" />
						</g>
					</g>
					<g id="Group 15">
						<g id="Group 14">
							<path id="Path 158" class="shp0" d="M3.31 3.07C2.7 3.07 2.19 3.47 1.99 4.01L1.91 4.01C0.87 4.01 0 4.85 0 5.89C0 6.92 0.87 7.76 1.91 7.76L1.99 7.76C2.19 8.3 2.7 8.7 3.31 8.7L5.66 8.7L5.66 3.07L3.31 3.07Z" />
						</g>
					</g>
					<g id="Group 17">
						<g id="Group 16">
							<path id="Path 159" class="shp0" d="M11.28 0.26C10.76 0.26 10.34 0.68 10.34 1.2L10.34 10.57C10.34 11.09 10.76 11.51 11.28 11.51C11.8 11.51 12.22 11.09 12.22 10.57L12.22 1.2C12.22 0.68 11.8 0.26 11.28 0.26Z" />
						</g>
					</g>
					<g id="Group 19">
						<g id="Group 18">
							<path id="Path 160" class="shp0" d="M3.31 9.64C3.15 9.64 3 9.62 2.84 9.59L2.84 11.98C2.84 12.75 3.47 13.39 4.25 13.39C5.03 13.39 5.66 12.75 5.66 11.98L5.66 9.64L3.31 9.64Z" />
						</g>
					</g>
					<g id="Group 21">
						<g id="Group 20">
							<path id="Path 161" class="shp0" d="M8.99 1.88C8.34 2.54 7.5 2.92 6.59 3.03L6.59 8.74C7.5 8.85 8.34 9.23 8.99 9.89L9.41 10.3L9.41 1.47L8.99 1.88Z" />
						</g>
					</g>
				</g>
			</g>
		</g>
	</g>
</svg>