<svg version="1.2" baseProfile="tiny-ps" xmlns="http://www.w3.org/2000/svg" viewBox="0 0 17 17" width="17" height="17">
	<title>Education Portal – 4</title>
	<style>
		tspan { white-space:pre }
		.shp0 { fill: #bcbcbc } 
	</style>
	<g id="Education Portal – 4">
		<g id="Group 158">
			<g id="Group 37">
				<g id="online-course">
					<g id="Group 23">
						<g id="Group 22">
							<path id="Path 162" class="shp0" d="M0.6 12.13L0.6 1.25L0.3 1.25C0.14 1.25 0 1.39 0 1.55L0 12.74C0 12.9 0.14 13.04 0.3 13.04L10.27 13.04L10.27 12.43L0.91 12.43C0.74 12.43 0.6 12.3 0.6 12.13Z" />
							<path id="Path 163" class="shp0" d="M7.25 10.81L7.25 0.95C7.25 0.62 6.98 0.35 6.65 0.35L4.83 0.35L4.83 5.18C4.83 5.26 4.8 5.34 4.75 5.39C4.69 5.45 4.61 5.48 4.53 5.48C4.44 5.48 4.35 5.44 4.3 5.37L3.32 4.15L2.35 5.37C2.27 5.47 2.14 5.51 2.02 5.47C1.89 5.42 1.81 5.31 1.81 5.18L1.81 0.35L1.51 0.35C1.34 0.35 1.21 0.48 1.21 0.65L1.21 10.62L6.62 10.62C6.84 10.62 7.06 10.69 7.25 10.81Z" />
							<path id="Path 164" class="shp0" d="M3.32 3.37C3.42 3.37 3.5 3.41 3.56 3.48L4.23 4.32L4.23 0.35L2.42 0.35L2.42 4.32L3.09 3.48C3.15 3.41 3.23 3.37 3.32 3.37Z" />
							<path id="Path 165" class="shp0" d="M14.19 6.71L14.19 1.55C14.19 1.39 14.05 1.25 13.88 1.25L13.58 1.25L13.58 6.69L13.88 6.69C13.99 6.69 14.09 6.7 14.19 6.71Z" />
							<path id="Path 166" class="shp0" d="M6.62 10.61L1.21 10.61L1.21 11.21L7.25 11.21C7.22 10.88 6.95 10.62 6.62 10.61Z" />
							<path id="Path 167" class="shp0" d="M9.96 14.23C9.96 15.4 10.9 16.34 12.07 16.35L13.88 16.35C15.05 16.34 16 15.4 16 14.23L16 10.91L9.96 10.91L9.96 14.23Z" />
							<path id="Path 168" class="shp0" d="M7.36 11.21L9.77 11.21L9.77 10.61L7.99 10.61C7.66 10.62 7.39 10.88 7.36 11.21Z" />
							<path id="Path 169" class="shp0" d="M13.88 6.8L13.28 6.8L13.28 10.73L16 10.73L16 8.92C16 7.75 15.05 6.8 13.88 6.8Z" />
							<path id="Path 170" class="shp0" d="M10.17 8.92L10.17 10.73L12.89 10.73L12.89 6.8L12.29 6.8C11.12 6.8 10.17 7.75 10.17 8.92Z" />
							<path id="Path 171" class="shp0" d="M12.33 6.69L13.23 6.69L13.23 0.65C13.23 0.48 13.1 0.35 12.93 0.35L7.8 0.35C7.46 0.35 7.19 0.62 7.19 0.95L7.19 10.81C7.38 10.69 7.6 10.62 7.83 10.62L9.61 10.62L9.61 9.41C9.61 7.91 10.83 6.69 12.33 6.69Z" />
						</g>
					</g>
				</g>
			</g>
		</g>
	</g>
</svg>