<svg version="1.2" baseProfile="tiny-ps" xmlns="http://www.w3.org/2000/svg" viewBox="0 0 18 17" width="18" height="17">
	<title>Education Portal – 4</title>
	<style>
		tspan { white-space:pre }
		.shp0 { fill: #bcbcbc } 
	</style>
	<g id="Education Portal – 4">
		<g id="Group 158">
			<g id="Group 38">
				<g id="school">
					<g id="Group 25">
						<g id="Group 24">
							<path id="Path 174" class="shp0" d="M11.61 2.35L11.2 1.82L11.61 1.29C11.69 1.17 11.67 1.01 11.56 0.92C11.51 0.89 11.45 0.87 11.4 0.87L9.33 0.87C9.19 0.87 9.07 0.98 9.06 1.13L9.06 3.46L9.59 3.46L9.59 2.77L11.4 2.77C11.54 2.77 11.66 2.65 11.66 2.51C11.66 2.45 11.64 2.4 11.61 2.35Z" />
						</g>
					</g>
					<g id="Group 27">
						<g id="Group 26">
							<path id="Path 175" fill-rule="evenodd" class="shp0" d="M4.31 11.34L4.31 16.85L1 16.85C1 16.85 1 11.73 1 11.72C1 11.51 1.18 11.34 1.39 11.34L4.31 11.34ZM2.25 14.84C2.25 14.7 2.13 14.58 1.98 14.58C1.84 14.58 1.72 14.7 1.72 14.84L1.72 15.41C1.72 15.55 1.84 15.67 1.98 15.67C2.13 15.67 2.25 15.55 2.25 15.41L2.25 14.84ZM2.25 12.65C2.25 12.5 2.13 12.38 1.98 12.38C1.84 12.38 1.72 12.5 1.72 12.65L1.72 13.21C1.72 13.36 1.84 13.47 1.98 13.47C2.13 13.47 2.25 13.36 2.25 13.21L2.25 12.65ZM3.59 14.84C3.59 14.7 3.47 14.58 3.33 14.58C3.18 14.58 3.07 14.7 3.07 14.84L3.07 15.41C3.07 15.55 3.18 15.67 3.33 15.67C3.47 15.67 3.59 15.55 3.59 15.41L3.59 14.84ZM3.59 12.65C3.59 12.5 3.47 12.38 3.33 12.38C3.18 12.38 3.07 12.5 3.07 12.65L3.07 13.21C3.07 13.36 3.18 13.47 3.33 13.47C3.47 13.47 3.59 13.36 3.59 13.21L3.59 12.65Z" />
						</g>
					</g>
					<g id="Group 29">
						<g id="Group 28">
							<path id="Path 176" fill-rule="evenodd" class="shp0" d="M11.44 9.82L11.44 16.85L10.32 16.85L10.32 14.12C10.32 14.11 10.32 14.11 10.32 14.1C10.32 13.97 10.21 13.86 10.08 13.87L7.82 13.87C7.82 13.87 7.81 13.87 7.81 13.87C7.67 13.87 7.57 13.98 7.57 14.12L7.57 16.85L6.42 16.85L6.42 9.82L8.94 7.68L11.44 9.82ZM10.34 12.13C10.34 11.98 10.22 11.86 10.08 11.86L7.81 11.86C7.66 11.86 7.54 11.98 7.54 12.13C7.54 12.27 7.66 12.39 7.81 12.39L10.08 12.39C10.22 12.39 10.34 12.27 10.34 12.13Z" />
						</g>
					</g>
					<g id="Group 31">
						<g id="Group 30">
							<path id="Path 177" fill-rule="evenodd" class="shp0" d="M17 11.73L17 16.85L13.59 16.85L13.59 11.34C13.59 11.34 16.61 11.34 16.62 11.34C16.83 11.34 17 11.52 17 11.73ZM14.93 14.84C14.93 14.7 14.82 14.58 14.67 14.58C14.53 14.58 14.41 14.7 14.41 14.84L14.41 15.41C14.41 15.55 14.53 15.67 14.67 15.67C14.82 15.67 14.93 15.55 14.93 15.41L14.93 14.84ZM14.93 12.65C14.93 12.5 14.82 12.38 14.67 12.38C14.53 12.38 14.41 12.5 14.41 12.65L14.41 13.21C14.41 13.36 14.53 13.47 14.67 13.47C14.82 13.47 14.93 13.36 14.93 13.21L14.93 12.65ZM16.25 14.84C16.25 14.7 16.13 14.58 15.98 14.58C15.84 14.58 15.72 14.7 15.72 14.84L15.72 15.41C15.72 15.55 15.84 15.67 15.98 15.67C16.13 15.67 16.25 15.55 16.25 15.41L16.25 14.84ZM16.25 12.65C16.25 12.5 16.13 12.38 15.98 12.38C15.84 12.38 15.72 12.5 15.72 12.65L15.72 13.21C15.72 13.36 15.84 13.47 15.98 13.47C16.13 13.47 16.25 13.36 16.25 13.21L16.25 12.65Z" />
						</g>
					</g>
					<g id="Group 33">
						<g id="Group 32">
							<path id="Path 178" class="shp0" d="M8.95 4.46L5.2 7.68L5.67 8.23L8.78 5.58C8.88 5.5 9.02 5.5 9.12 5.58L12.22 8.23L12.71 7.68L8.95 4.46Z" />
						</g>
					</g>
					<g id="Group 35">
						<g id="Group 34">
							<path id="Rectangle 18" class="shp0" d="M8.25 14.47L10.05 14.47L10.05 16.87L8.25 16.87L8.25 14.47Z" />
						</g>
					</g>
				</g>
			</g>
		</g>
	</g>
</svg>