<svg version="1.2" baseProfile="tiny-ps" xmlns="http://www.w3.org/2000/svg" viewBox="0 0 17 17" width="17" height="17">
	<title>Education Portal – 4</title>
	<style>
		tspan { white-space:pre }
		.shp0 { fill: #bcbcbc } 
	</style>
	<g id="Education Portal – 4">
		<g id="Group 158">
			<g id="Group 39">
				<g id="teacher">
					<path id="Path 179" class="shp0" d="M10.93 5.45L10.93 6C10.93 6.41 10.87 6.82 10.75 7.21C11.17 7.15 11.49 6.82 11.53 6.4C11.57 5.98 11.32 5.59 10.93 5.45Z" />
					<path id="Path 180" class="shp0" d="M3.05 5.45C2.65 5.59 2.4 5.98 2.44 6.4C2.48 6.82 2.8 7.15 3.22 7.21C3.1 6.82 3.05 6.41 3.05 6L3.05 5.45Z" />
					<path id="Path 181" class="shp0" d="M4.36 5.11L3.45 5.11L3.45 5.72L4.09 5.72C4.13 5.49 4.22 5.29 4.36 5.11Z" />
					<path id="Path 182" class="shp0" d="M8.22 2.17C8.22 2 8.36 1.87 8.53 1.87C10.21 1.87 11.57 3.23 11.57 4.91L11.57 4.94C11.79 4.99 12 5.08 12.18 5.22L12.18 4.91C12.18 2.22 10 0.04 7.31 0.04C4.62 0.04 2.44 2.22 2.44 4.91L2.44 5.22C2.62 5.08 2.82 4.99 3.05 4.94L3.05 4.91C3.05 4.74 3.18 4.61 3.35 4.61L6.09 4.61C7.27 4.61 8.22 3.51 8.22 2.17Z" />
					<path id="Path 183" fill-rule="evenodd" class="shp0" d="M5.49 5.1C6 5.1 6.41 5.51 6.41 6.01C6.41 6.52 6 6.93 5.49 6.93C4.99 6.93 4.58 6.52 4.58 6.01C4.58 5.51 4.99 5.1 5.49 5.1ZM5.49 5.71C5.32 5.71 5.19 5.84 5.19 6.01C5.19 6.18 5.32 6.32 5.49 6.32C5.66 6.32 5.8 6.18 5.8 6.01C5.8 5.84 5.66 5.71 5.49 5.71Z" />
					<path id="Path 184" class="shp0" d="M2.87 15.83L2.87 16.44C2.87 16.61 3 16.75 3.17 16.75L4.09 16.75L4.09 15.53L3.17 15.53C3 15.53 2.87 15.66 2.87 15.83Z" />
					<path id="Path 185" class="shp0" d="M8.35 4.61C9.07 4.61 9.69 5.12 9.84 5.83L10.48 5.83L10.48 4.91C10.48 3.68 9.56 2.64 8.33 2.49C8.22 3.72 7.44 4.73 6.41 5.08C6.67 5.37 6.82 5.74 6.82 6.13C6.83 5.29 7.51 4.61 8.35 4.61Z" />
					<path id="Path 186" class="shp0" d="M16.4 15.53L15.49 15.53L15.49 16.75L16.4 16.75C16.57 16.75 16.71 16.61 16.71 16.44L16.71 15.83C16.71 15.66 16.57 15.53 16.4 15.53Z" />
					<path id="Path 187" fill-rule="evenodd" class="shp0" d="M16.1 14.92L15.19 14.92C15.02 14.92 14.88 15.06 14.88 15.22L14.88 16.75L12.44 16.75L12.44 11.87L16.1 11.87L16.1 14.92ZM13.36 12.79C13.36 12.96 13.49 13.09 13.66 13.09L14.88 13.09C15.05 13.09 15.19 12.96 15.19 12.79C15.19 12.62 15.05 12.48 14.88 12.48L13.66 12.48C13.49 12.48 13.36 12.62 13.36 12.79ZM15.49 14.01C15.49 13.84 15.35 13.7 15.19 13.7L13.4 13.7C13.23 13.7 13.09 13.84 13.09 14.01C13.09 14.17 13.23 14.31 13.4 14.31L15.19 14.31C15.35 14.31 15.49 14.17 15.49 14.01Z" />
					<path id="Path 188" fill-rule="evenodd" class="shp0" d="M6.97 9.63C5.07 9.63 3.49 8.17 3.33 6.28L3.96 6.28C4.11 7.04 4.82 7.57 5.6 7.49C6.38 7.41 6.97 6.75 6.97 5.97C6.97 6.76 7.56 7.41 8.34 7.49C9.12 7.57 9.83 7.04 9.99 6.28L10.61 6.28C10.45 8.17 8.87 9.63 6.97 9.63ZM6.97 5.97C6.97 5.97 6.97 5.97 6.97 5.97C6.97 5.97 6.97 5.97 6.97 5.97ZM8.14 7.93C8.05 7.79 7.86 7.76 7.72 7.85C7.21 8.19 6.73 8.19 6.23 7.85C6.09 7.76 5.9 7.79 5.8 7.93C5.71 8.07 5.75 8.26 5.89 8.36C6.24 8.59 6.61 8.71 6.97 8.71C7.34 8.71 7.7 8.59 8.05 8.36C8.19 8.26 8.23 8.07 8.14 7.93Z" />
					<path id="Path 189" class="shp0" d="M5.16 11.08L6.38 10.17L5.16 10.17L5.16 11.08Z" />
					<path id="Path 190" class="shp0" d="M11.24 10.17L9.11 10.17L9.11 11.38L12.15 11.38L12.15 11.08C12.15 10.58 11.74 10.17 11.24 10.17Z" />
					<path id="Path 191" fill-rule="evenodd" class="shp0" d="M8.35 5.1C8.86 5.1 9.27 5.51 9.27 6.01C9.27 6.52 8.86 6.93 8.35 6.93C7.85 6.93 7.44 6.52 7.44 6.01C7.44 5.51 7.85 5.1 8.35 5.1ZM8.35 5.71C8.19 5.71 8.05 5.84 8.05 6.01C8.05 6.18 8.19 6.32 8.35 6.32C8.52 6.32 8.66 6.18 8.66 6.01C8.66 5.84 8.52 5.71 8.35 5.71Z" />
					<path id="Path 192" class="shp0" d="M8.51 11.87L12.17 11.87L12.17 16.75L8.51 16.75L8.51 11.87Z" />
					<path id="Path 193" class="shp0" d="M7.18 16.75L8.09 16.75L8.09 11.57C8.09 11.48 8.13 11.4 8.19 11.34L7.18 10.58L7.18 16.75Z" />
					<path id="Path 194" class="shp0" d="M8.68 10.17L7.46 10.17L8.68 11.08L8.68 10.17Z" />
					<path id="Path 195" class="shp0" d="M5.36 11.81C5.27 11.88 5.14 11.89 5.04 11.84C4.94 11.79 4.87 11.68 4.87 11.57L4.87 10.05L2.74 10.05C2.24 10.05 1.83 10.45 1.83 10.96L1.83 11.5L0.58 9L0.58 9C0.5 8.85 0.32 8.78 0.17 8.86C0.02 8.93 -0.04 9.12 0.03 9.27L0.03 9.27L1.83 12.86L1.83 16.75L2.49 16.75C2.45 16.65 2.44 16.55 2.44 16.44L2.44 15.83C2.44 15.33 2.85 14.92 3.35 14.92L4.57 14.92C4.74 14.92 4.87 15.06 4.87 15.22L4.87 16.75L7.01 16.75L7.01 10.58L5.36 11.81Z" />
				</g>
			</g>
		</g>
	</g>
</svg>