<svg version="1.2" baseProfile="tiny-ps" xmlns="http://www.w3.org/2000/svg" viewBox="0 0 41 31" width="41" height="31">
	<title>Education Portal – 4</title>
	<style>
		tspan { white-space:pre }
		.shp0 { fill: #7d58af } 
	</style>
	<g id="Education Portal – 4">
		<g id="Group 157">
			<g id="Group 149">
				<g id="team(1)">
					<g id="Group 100">
						<g id="Group 99">
							<path id="Path 1292" class="shp0" d="M35.71 13.87C34.35 13.18 31.78 13.17 31.67 13.17C31.35 13.17 31.08 13.44 31.08 13.76C31.08 14.09 31.35 14.35 31.67 14.35C32.33 14.35 34.26 14.45 35.19 14.92C35.27 14.96 35.36 14.98 35.45 14.98C35.67 14.98 35.87 14.86 35.98 14.66C36.12 14.37 36.01 14.01 35.71 13.87Z" />
						</g>
					</g>
					<g id="Group 102">
						<g id="Group 101">
							<path id="Path 1293" fill-rule="evenodd" class="shp0" d="M40.45 24.64L40.45 29.51C40.45 29.84 40.19 30.1 39.86 30.1C39.54 30.1 39.27 29.84 39.27 29.51L39.27 24.64C39.27 24.06 38.88 23.55 38.33 23.39L35.89 22.69C35.81 22.67 35.72 22.63 35.64 22.59L34.15 24.09L34.15 29.51C34.15 29.84 33.89 30.1 33.56 30.1C33.24 30.1 32.97 29.84 32.97 29.51L32.97 24.09L31.47 22.58C31.27 22.68 31.07 22.74 30.92 22.78L30.77 22.82C31.32 23.39 31.64 24.16 31.64 24.98L31.64 29.51C31.64 29.84 31.38 30.1 31.06 30.1C30.73 30.1 30.47 29.84 30.47 29.51L30.47 24.98C30.47 24.17 29.96 23.44 29.2 23.16L25.37 21.77L23.78 24.16C23.58 24.47 23.25 24.66 22.89 24.7C22.85 24.7 22.81 24.7 22.77 24.7C22.44 24.7 22.14 24.58 21.91 24.35L20.93 23.38L20.93 29.51C20.93 29.84 20.67 30.1 20.35 30.1C20.02 30.1 19.76 29.84 19.76 29.51L19.76 23.38L18.79 24.35C18.55 24.58 18.25 24.7 17.92 24.7C17.88 24.7 17.84 24.7 17.8 24.7C17.44 24.66 17.11 24.47 16.91 24.16L15.32 21.77L11.49 23.16C10.73 23.44 10.22 24.17 10.22 24.98L10.22 29.51C10.22 29.84 9.96 30.1 9.63 30.1C9.31 30.1 9.05 29.84 9.05 29.51L9.05 24.98C9.05 24.38 9.22 23.82 9.52 23.33L8.88 23.01L8.19 23.66C7.71 24.12 7.1 24.35 6.48 24.35C5.87 24.35 5.26 24.12 4.78 23.66L4.09 23.01L2.12 24C1.68 24.22 1.4 24.66 1.4 25.16L1.4 29.51C1.4 29.84 1.14 30.1 0.81 30.1C0.49 30.1 0.22 29.84 0.22 29.51L0.22 25.16C0.22 24.22 0.75 23.37 1.6 22.94L3.18 22.15C1.48 21.41 0.94 20.38 0.92 20.33C0.83 20.16 0.83 19.97 0.92 19.8C1.34 18.95 1.39 17.39 1.43 16.14C1.45 15.73 1.46 15.33 1.49 14.98C1.69 12.15 3.84 10.02 6.48 10.02C9.13 10.02 11.28 12.15 11.48 14.98C11.51 15.33 11.52 15.73 11.53 16.14C11.58 17.39 11.63 18.95 12.05 19.8C12.13 19.97 12.13 20.16 12.05 20.33C12.03 20.38 11.49 21.42 9.79 22.15L10.36 22.44C10.59 22.28 10.83 22.15 11.09 22.06L14.72 20.74C14.71 20.58 14.76 20.41 14.88 20.29L15.98 19.13L15.98 17.15C14.43 15.84 13.46 13.86 13.46 11.66L13.46 10.33C13.04 9.42 12.83 8.45 12.83 7.46L12.83 6.2C12.83 3.1 15.35 0.57 18.46 0.57L27.28 0.57C27.6 0.57 27.86 0.84 27.86 1.16L27.86 7.46C27.86 8.45 27.65 9.42 27.23 10.33L27.23 11.87C27.23 13.77 26.44 15.6 25.06 16.9C24.94 17 24.83 17.1 24.71 17.2L24.71 19.13L25.81 20.29C25.93 20.41 25.99 20.58 25.97 20.74L29.41 21.99L30.6 21.65C31.08 21.51 31.08 21.45 31.08 21.32L31.08 20.47C29.94 19.65 29.19 18.28 29.19 16.75L29.19 15.79L28.89 15.19C28.67 14.76 28.56 14.28 28.56 13.8L28.56 13.76C28.56 11.7 30.24 10.02 32.3 10.02L37.97 10.02C38.3 10.02 38.56 10.29 38.56 10.61L38.56 13.65C38.56 14.23 38.42 14.81 38.17 15.32L37.93 15.79L37.93 16.91C37.93 18.11 37.46 19.22 36.6 20.05C36.43 20.22 36.24 20.37 36.04 20.51L36.04 21.32C36.04 21.43 36.11 21.53 36.22 21.56L38.65 22.26C39.71 22.56 40.45 23.54 40.45 24.64ZM4.01 20.51C3.32 20.03 2.77 19.37 2.45 18.59C2.38 19.1 2.27 19.58 2.11 20C2.35 20.29 2.9 20.82 4.01 21.21L4.01 20.51ZM7.93 22.29C7.84 22.12 7.79 21.92 7.79 21.71L7.79 21.09C7.37 21.21 6.94 21.28 6.48 21.28C6.03 21.28 5.59 21.21 5.18 21.08L5.18 21.71C5.18 21.92 5.13 22.12 5.04 22.29L5.59 22.81C6.09 23.29 6.88 23.29 7.38 22.81L7.93 22.29ZM9.64 17.41C8.68 15.31 6.23 15.02 5.47 14.99L4.59 15.9C4.36 16.14 3.99 16.15 3.75 15.92C3.52 15.69 3.51 15.32 3.74 15.09L4.8 13.98C4.91 13.87 5.05 13.81 5.21 13.8C5.25 13.8 6.27 13.78 7.45 14.16C8.73 14.57 9.72 15.3 10.36 16.29C10.36 16.25 10.36 16.22 10.36 16.18C10.34 15.78 10.33 15.39 10.31 15.06C10.23 14.01 9.81 13.03 9.12 12.32C8.42 11.6 7.48 11.2 6.48 11.2C5.49 11.2 4.55 11.6 3.85 12.32C3.16 13.03 2.74 14.01 2.66 15.06C2.64 15.39 2.63 15.78 2.61 16.18C2.61 16.23 2.61 16.28 2.61 16.33C2.64 16.33 2.67 16.32 2.7 16.32C3.03 16.32 3.29 16.59 3.29 16.91C3.29 18.67 4.73 20.1 6.48 20.1C8.07 20.1 9.4 18.96 9.64 17.41ZM10.85 20C10.69 19.58 10.59 19.1 10.52 18.59C10.19 19.38 9.65 20.04 8.96 20.51L8.96 21.22C10.06 20.82 10.62 20.29 10.85 20ZM19.96 17.57C21.36 17.66 22.7 17.26 23.79 16.43C23.79 16.43 23.79 16.43 23.8 16.42C23.95 16.3 24.1 16.18 24.25 16.04C25.41 14.95 26.06 13.47 26.06 11.87L26.06 10.2C26.06 10.11 26.08 10.02 26.11 9.94C26.49 9.15 26.69 8.32 26.69 7.46L26.69 1.75L18.46 1.75C16 1.75 14 3.75 14 6.2L14 7.46C14 8.32 14.2 9.15 14.58 9.94C14.61 10.02 14.63 10.11 14.63 10.2L14.63 11.66C14.63 14.78 16.98 17.38 19.96 17.57ZM19.43 22.04L16.65 20.14L16.06 20.76L17.89 23.51C17.89 23.51 17.9 23.52 17.92 23.53C17.94 23.53 17.95 23.52 17.95 23.51L19.43 22.04ZM23.54 19.06L23.54 17.98C22.56 18.49 21.48 18.76 20.35 18.76C20.2 18.76 20.04 18.76 19.89 18.75C18.9 18.68 17.98 18.4 17.15 17.96L17.15 19.06L20.35 21.24L23.54 19.06ZM24.63 20.76L24.04 20.14L21.26 22.04L22.74 23.51C22.74 23.52 22.75 23.53 22.77 23.53C22.79 23.52 22.8 23.51 22.8 23.51L24.63 20.76ZM34.9 21.67C34.88 21.56 34.86 21.44 34.86 21.32L34.86 21.09C34.45 21.22 34.01 21.28 33.56 21.28C33.52 21.28 33.47 21.28 33.43 21.28C33.02 21.27 32.63 21.2 32.26 21.07L32.26 21.32C32.26 21.45 32.25 21.57 32.22 21.67L33.56 23.01L34.9 21.67ZM36.75 16.91L36.75 15.65C36.75 15.56 36.77 15.47 36.81 15.39L37.11 14.79C37.29 14.44 37.38 14.04 37.38 13.65L37.38 11.2L32.3 11.2C30.89 11.2 29.74 12.35 29.74 13.76L29.74 13.8C29.74 14.1 29.81 14.39 29.94 14.66L30.31 15.39C30.35 15.47 30.37 15.56 30.37 15.65L30.37 16.75C30.37 18.55 31.76 20.05 33.46 20.1C34.33 20.13 35.16 19.81 35.78 19.2C36.41 18.6 36.75 17.78 36.75 16.91Z" />
						</g>
					</g>
					<g id="Group 104">
						<g id="Group 103">
							<path id="Path 1294" class="shp0" d="M37.34 25.14C37.02 25.14 36.75 25.41 36.75 25.73L36.75 29.51C36.75 29.84 37.02 30.1 37.34 30.1C37.67 30.1 37.93 29.84 37.93 29.51L37.93 25.73C37.93 25.41 37.67 25.14 37.34 25.14Z" />
						</g>
					</g>
					<g id="Group 106">
						<g id="Group 105">
							<path id="Path 1295" class="shp0" d="M3.33 25.92C3.01 25.92 2.75 26.19 2.75 26.51L2.75 29.51C2.75 29.84 3.01 30.1 3.33 30.1C3.66 30.1 3.92 29.84 3.92 29.51L3.92 26.51C3.92 26.19 3.66 25.92 3.33 25.92Z" />
						</g>
					</g>
					<g id="Group 108">
						<g id="Group 107">
							<path id="Path 1296" class="shp0" d="M25.17 7.68C22.94 5.45 18.28 5.87 16.38 6.16C15.78 6.25 15.35 6.76 15.35 7.37L15.35 8.72C15.35 9.05 15.61 9.31 15.93 9.31C16.26 9.31 16.52 9.05 16.52 8.72L16.52 7.37C16.52 7.35 16.54 7.33 16.55 7.33C17.31 7.21 18.82 7.03 20.38 7.14C22.22 7.26 23.55 7.72 24.34 8.51C24.57 8.74 24.94 8.74 25.17 8.51C25.4 8.28 25.4 7.91 25.17 7.68Z" />
						</g>
					</g>
					<g id="Group 110">
						<g id="Group 109">
							<path id="Path 1297" class="shp0" d="M13.41 26.4C13.09 26.4 12.83 26.67 12.83 26.99L12.83 29.51C12.83 29.84 13.09 30.1 13.41 30.1C13.74 30.1 14 29.84 14 29.51L14 26.99C14 26.67 13.74 26.4 13.41 26.4Z" />
						</g>
					</g>
					<g id="Group 112">
						<g id="Group 111">
							<path id="Path 1298" class="shp0" d="M27.28 26.4C26.95 26.4 26.69 26.67 26.69 26.99L26.69 29.51C26.69 29.84 26.95 30.1 27.28 30.1C27.6 30.1 27.86 29.84 27.86 29.51L27.86 26.99C27.86 26.67 27.6 26.4 27.28 26.4Z" />
						</g>
					</g>
				</g>
			</g>
		</g>
	</g>
</svg>