<svg version="1.2" baseProfile="tiny-ps" xmlns="http://www.w3.org/2000/svg" viewBox="0 0 40 30" width="40" height="30">
	<title>Education Portal – 4</title>
	<style>
		tspan { white-space:pre }
		.shp0 { fill: #ffffff } 
	</style>
	<g id="Education Portal – 4">
		<g id="Group 152">
			<g id="Group 146">
				<g id="team(1)">
					<g id="Group 100">
						<g id="Group 99">
							<path id="Path 1292" class="shp0" d="M34.65 13.59C33.34 12.94 30.89 12.93 30.78 12.93C30.47 12.93 30.22 13.18 30.22 13.49C30.22 13.81 30.47 14.06 30.78 14.06C31.42 14.06 33.25 14.16 34.14 14.6C34.22 14.64 34.31 14.66 34.39 14.66C34.6 14.66 34.8 14.55 34.9 14.35C35.04 14.07 34.93 13.73 34.65 13.59Z" />
						</g>
					</g>
					<g id="Group 102">
						<g id="Group 101">
							<path id="Path 1293" fill-rule="evenodd" class="shp0" d="M39.17 23.89L39.17 28.54C39.17 28.85 38.92 29.11 38.61 29.11C38.3 29.11 38.05 28.85 38.05 28.54L38.05 23.89C38.05 23.33 37.68 22.84 37.14 22.69L34.82 22.03C34.74 22 34.66 21.97 34.58 21.93L33.15 23.36L33.15 28.54C33.15 28.85 32.9 29.11 32.59 29.11C32.28 29.11 32.03 28.85 32.03 28.54L32.03 23.36L30.59 21.92C30.4 22.02 30.21 22.07 30.07 22.11L29.93 22.15C30.45 22.69 30.76 23.43 30.76 24.21L30.76 28.54C30.76 28.85 30.51 29.11 30.2 29.11C29.89 29.11 29.63 28.85 29.63 28.54L29.63 24.21C29.63 23.44 29.15 22.74 28.42 22.48L24.77 21.15L23.25 23.43C23.05 23.72 22.74 23.91 22.39 23.94C22.35 23.95 22.32 23.95 22.28 23.95C21.97 23.95 21.67 23.83 21.45 23.61L20.53 22.68L20.53 28.54C20.53 28.85 20.27 29.11 19.96 29.11C19.65 29.11 19.4 28.85 19.4 28.54L19.4 22.68L18.47 23.61C18.25 23.83 17.96 23.95 17.65 23.95C17.61 23.95 17.57 23.95 17.54 23.94C17.19 23.91 16.88 23.72 16.68 23.43L15.16 21.15L11.51 22.48C10.78 22.74 10.29 23.44 10.29 24.21L10.29 28.54C10.29 28.85 10.04 29.11 9.73 29.11C9.42 29.11 9.17 28.85 9.17 28.54L9.17 24.21C9.17 23.64 9.33 23.1 9.62 22.64L9.01 22.33L8.35 22.95C7.9 23.39 7.31 23.61 6.72 23.61C6.14 23.61 5.55 23.39 5.09 22.95L4.44 22.33L2.56 23.27C2.13 23.48 1.87 23.91 1.87 24.38L1.87 28.54C1.87 28.85 1.62 29.11 1.31 29.11C0.99 29.11 0.74 28.85 0.74 28.54L0.74 24.38C0.74 23.48 1.24 22.67 2.05 22.26L3.56 21.51C1.94 20.8 1.43 19.81 1.4 19.77C1.32 19.61 1.32 19.42 1.4 19.26C1.81 18.45 1.86 16.96 1.9 15.77C1.91 15.37 1.92 14.99 1.95 14.66C2.14 11.96 4.19 9.92 6.72 9.92C9.25 9.92 11.31 11.96 11.5 14.66C11.52 14.99 11.53 15.37 11.55 15.77C11.59 16.96 11.64 18.45 12.04 19.26C12.12 19.42 12.12 19.61 12.04 19.77C12.02 19.81 11.5 20.81 9.88 21.51L10.43 21.78C10.64 21.63 10.87 21.51 11.12 21.42L14.59 20.16C14.58 20 14.63 19.85 14.74 19.73L15.79 18.63L15.79 16.73C14.32 15.48 13.38 13.59 13.38 11.48L13.38 10.21C12.98 9.34 12.78 8.42 12.78 7.48L12.78 6.27C12.78 3.31 15.19 0.89 18.16 0.89L26.59 0.89C26.9 0.89 27.15 1.15 27.15 1.46L27.15 7.48C27.15 8.42 26.95 9.34 26.55 10.21L26.55 11.69C26.55 13.5 25.79 15.25 24.46 16.49C24.36 16.59 24.25 16.69 24.14 16.78L24.14 18.63L25.19 19.73C25.3 19.85 25.35 20 25.34 20.16L28.62 21.35L29.76 21.03C30.22 20.89 30.22 20.84 30.22 20.72L30.22 19.9C29.13 19.12 28.42 17.81 28.42 16.35L28.42 15.43L28.13 14.86C27.92 14.45 27.81 13.99 27.81 13.53L27.81 13.49C27.81 11.53 29.42 9.92 31.39 9.92L36.8 9.92C37.11 9.92 37.37 10.17 37.37 10.49L37.37 13.39C37.37 13.94 37.24 14.49 36.99 14.98L36.76 15.43L36.76 16.5C36.76 17.64 36.31 18.71 35.5 19.5C35.33 19.66 35.15 19.81 34.96 19.94L34.96 20.72C34.96 20.82 35.03 20.92 35.13 20.94L37.45 21.61C38.47 21.9 39.17 22.83 39.17 23.89ZM4.35 19.94C3.7 19.49 3.18 18.85 2.87 18.11C2.8 18.59 2.7 19.05 2.55 19.45C2.77 19.73 3.3 20.23 4.35 20.61L4.35 19.94ZM8.1 21.64C8.01 21.47 7.97 21.29 7.97 21.09L7.97 20.49C7.57 20.61 7.15 20.68 6.72 20.68C6.29 20.68 5.87 20.61 5.48 20.49L5.48 21.09C5.48 21.29 5.43 21.47 5.34 21.64L5.87 22.14C6.35 22.59 7.1 22.59 7.58 22.14L8.1 21.64ZM9.73 16.98C8.82 14.97 6.48 14.7 5.75 14.66L4.91 15.54C4.69 15.76 4.34 15.77 4.11 15.56C3.89 15.34 3.88 14.98 4.1 14.76L5.11 13.71C5.22 13.6 5.36 13.54 5.5 13.53C5.54 13.53 6.52 13.51 7.64 13.87C8.87 14.27 9.81 14.96 10.42 15.91C10.42 15.87 10.42 15.84 10.42 15.8C10.41 15.42 10.4 15.05 10.37 14.74C10.3 13.73 9.9 12.8 9.24 12.11C8.57 11.43 7.68 11.05 6.72 11.05C5.77 11.05 4.88 11.43 4.21 12.11C3.55 12.8 3.14 13.73 3.07 14.74C3.05 15.05 3.04 15.42 3.02 15.8C3.02 15.85 3.02 15.9 3.02 15.95C3.05 15.94 3.08 15.94 3.11 15.94C3.42 15.94 3.67 16.19 3.67 16.5C3.67 18.19 5.04 19.55 6.72 19.55C8.23 19.55 9.5 18.46 9.73 16.98ZM10.9 19.45C10.74 19.05 10.64 18.59 10.58 18.11C10.27 18.86 9.75 19.49 9.09 19.94L9.09 20.62C10.14 20.24 10.67 19.73 10.9 19.45ZM19.6 17.13C20.93 17.22 22.21 16.84 23.25 16.04C23.26 16.04 23.26 16.04 23.26 16.04C23.41 15.92 23.56 15.8 23.69 15.67C24.81 14.63 25.42 13.21 25.42 11.69L25.42 10.09C25.42 10 25.44 9.92 25.48 9.84C25.84 9.09 26.02 8.3 26.02 7.48L26.02 2.02L18.16 2.02C15.81 2.02 13.91 3.93 13.91 6.27L13.91 7.48C13.91 8.3 14.09 9.09 14.45 9.84C14.49 9.92 14.51 10 14.51 10.09L14.51 11.48C14.51 14.47 16.74 16.95 19.6 17.13ZM19.09 21.4L16.43 19.59L15.87 20.18L17.62 22.8C17.62 22.81 17.63 22.82 17.65 22.82C17.66 22.82 17.67 22.81 17.68 22.81L19.09 21.4ZM23.01 18.55L23.01 17.53C22.08 18.01 21.05 18.27 19.97 18.27C19.82 18.27 19.68 18.27 19.53 18.26C18.59 18.2 17.7 17.93 16.92 17.5L16.92 18.55L19.96 20.64L23.01 18.55ZM24.06 20.18L23.5 19.59L20.84 21.4L22.25 22.81C22.25 22.81 22.26 22.82 22.28 22.82C22.3 22.82 22.31 22.81 22.31 22.8L24.06 20.18ZM33.87 21.05C33.85 20.94 33.83 20.83 33.83 20.72L33.83 20.49C33.44 20.61 33.02 20.68 32.59 20.68C32.55 20.68 32.51 20.68 32.46 20.68C32.08 20.67 31.7 20.6 31.35 20.48L31.35 20.72C31.35 20.84 31.33 20.95 31.31 21.05L32.59 22.33L33.87 21.05ZM35.64 16.5L35.64 15.3C35.64 15.21 35.66 15.13 35.7 15.05L35.98 14.48C36.15 14.14 36.24 13.76 36.24 13.39L36.24 11.05L31.39 11.05C30.04 11.05 28.94 12.15 28.94 13.49L28.94 13.53C28.94 13.81 29.01 14.1 29.13 14.35L29.48 15.05C29.52 15.13 29.54 15.21 29.54 15.3L29.54 16.35C29.54 18.07 30.87 19.5 32.5 19.55C33.33 19.58 34.12 19.27 34.71 18.69C35.31 18.11 35.64 17.34 35.64 16.5Z" />
						</g>
					</g>
					<g id="Group 104">
						<g id="Group 103">
							<path id="Path 1294" class="shp0" d="M36.2 24.37C35.89 24.37 35.64 24.62 35.64 24.93L35.64 28.54C35.64 28.85 35.89 29.11 36.2 29.11C36.51 29.11 36.76 28.85 36.76 28.54L36.76 24.93C36.76 24.62 36.51 24.37 36.2 24.37Z" />
						</g>
					</g>
					<g id="Group 106">
						<g id="Group 105">
							<path id="Path 1295" class="shp0" d="M3.71 25.11C3.4 25.11 3.15 25.36 3.15 25.68L3.15 28.54C3.15 28.85 3.4 29.11 3.71 29.11C4.02 29.11 4.28 28.85 4.28 28.54L4.28 25.68C4.28 25.36 4.02 25.11 3.71 25.11Z" />
						</g>
					</g>
					<g id="Group 108">
						<g id="Group 107">
							<path id="Path 1296" class="shp0" d="M24.58 7.68C22.45 5.55 17.99 5.96 16.18 6.23C15.6 6.32 15.19 6.8 15.19 7.38L15.19 8.68C15.19 8.99 15.44 9.24 15.75 9.24C16.06 9.24 16.31 8.99 16.31 8.68L16.31 7.38C16.31 7.36 16.33 7.35 16.34 7.34C17.07 7.24 18.51 7.07 20 7.17C21.76 7.28 23.03 7.72 23.78 8.48C24 8.7 24.36 8.7 24.58 8.48C24.8 8.26 24.8 7.9 24.58 7.68Z" />
						</g>
					</g>
					<g id="Group 110">
						<g id="Group 109">
							<path id="Path 1297" class="shp0" d="M13.34 25.57C13.03 25.57 12.78 25.82 12.78 26.13L12.78 28.54C12.78 28.85 13.03 29.11 13.34 29.11C13.65 29.11 13.91 28.85 13.91 28.54L13.91 26.13C13.91 25.82 13.65 25.57 13.34 25.57Z" />
						</g>
					</g>
					<g id="Group 112">
						<g id="Group 111">
							<path id="Path 1298" class="shp0" d="M26.59 25.57C26.27 25.57 26.02 25.82 26.02 26.13L26.02 28.54C26.02 28.85 26.27 29.11 26.59 29.11C26.9 29.11 27.15 28.85 27.15 28.54L27.15 26.13C27.15 25.82 26.9 25.57 26.59 25.57Z" />
						</g>
					</g>
				</g>
			</g>
		</g>
	</g>
</svg>