<svg version="1.2" baseProfile="tiny-ps" xmlns="http://www.w3.org/2000/svg" viewBox="0 0 196 189" width="196" height="189">
	<title>Education Portal – 4</title>
	<style>
		tspan { white-space:pre }
		.shp0 { fill: #f5f5f5 } 
		.shp1 { fill: #e0e0e0 } 
		.shp2 { fill: #ebebeb } 
		.shp3 { fill: #263238 } 
		.shp4 { fill: #a1cde8 } 
		.shp5 { fill: #000000 } 
		.shp6 { opacity: 0.102;fill: #000000 } 
		.shp7 { opacity: 0.302;fill: #000000 } 
		.shp8 { fill: #ffbe9d } 
		.shp9 { fill: #ffffff } 
		.shp10 { fill: #eb996e } 
		.shp11 { fill: #455a64 } 
		.shp12 { fill: #fafafa } 
	</style>
	<g id="Education Portal – 4">
		<g id="Group 158">
			<g id="Questions-pana(1)">
				<g id="freepik--background-complete--inject-4">
					<path id="Path 1304" class="shp0" d="M110.59 187.23C102.96 183.61 99.92 175.03 98.84 167.03C98.66 165.7 98.28 164.32 98.71 163.05C99.15 161.77 100.48 160.73 101.77 161.09C102.83 161.39 103.46 162.46 104.17 163.3C105.12 164.44 106.37 165.29 107.78 165.75C108.7 166.04 109.8 166.14 110.55 165.53C111.59 164.71 111.44 163.1 111.23 161.78C110.79 159.34 110.37 156.89 109.95 154.45C109.65 153.14 109.56 151.79 109.69 150.46C109.88 149.13 110.6 147.81 111.79 147.26C112.99 146.71 114.67 147.15 115.15 148.4C115.29 148.94 115.4 149.49 115.47 150.04C115.59 150.58 115.95 151.14 116.5 151.21C117.04 151.28 117.52 150.81 117.85 150.36C118.98 148.79 119.62 146.92 120.19 145.07C120.77 143.21 121.31 141.32 122.3 139.66C123.29 137.99 124.81 136.56 126.68 136.12C128.55 135.67 130.76 136.51 131.55 138.29C132.33 140.06 131.57 142.14 130.66 143.85C129.28 146.38 127.53 148.7 125.49 150.73C125.08 151.05 124.79 151.5 124.65 152C124.51 152.93 125.49 153.67 126.42 153.81C127.45 153.97 128.51 153.68 129.56 153.63C130.6 153.58 131.8 153.84 132.35 154.75C133.12 156.01 132.23 157.61 131.28 158.73C129.37 160.97 127.09 162.85 124.54 164.31C123.62 164.83 122.65 165.32 121.99 166.13C121.32 166.95 121.05 168.21 121.68 169.06C122.31 169.91 123.58 170 124.56 169.64C125.54 169.28 126.36 168.57 127.27 168.05C128.97 167.06 131.33 166.78 132.76 168.15C133.66 169.13 134.06 170.47 133.83 171.77C133.59 173.06 133.1 174.28 132.38 175.37C130.09 179.31 126.79 182.58 122.83 184.83C118.87 187 115.03 188.05 110.59 187.23" />
					<path id="Path 1305" class="shp1" d="M111.8 181.89C112.38 177.33 113.23 172.82 114.34 168.36L115.19 164.85C115.47 163.69 115.75 162.55 116.07 161.45C116.73 159.35 117.51 157.28 118.4 155.26C119.24 153.32 120.1 151.5 120.92 149.82C121.74 148.13 122.54 146.57 123.33 145.19C124.56 142.99 125.96 140.89 127.52 138.92C128.08 138.22 128.52 137.69 128.83 137.34C128.98 137.17 129.1 137.04 129.18 136.93C129.26 136.83 129.3 136.8 129.31 136.81C129.28 136.86 129.24 136.91 129.2 136.95L128.86 137.37C128.57 137.73 128.14 138.25 127.6 138.98C126.07 140.97 124.69 143.07 123.48 145.27C122.7 146.66 121.92 148.22 121.1 149.91C120.29 151.59 119.44 153.41 118.61 155.35C117.73 157.37 116.96 159.44 116.31 161.54C115.97 162.64 115.69 163.76 115.42 164.93L114.57 168.44C113.47 172.89 112.62 177.4 112.02 181.94" />
					<path id="Path 1306" class="shp1" d="M116.15 161.43C116.05 161.26 115.98 161.08 115.92 160.89C115.79 160.54 115.62 160 115.41 159.38C115.01 158.1 114.5 156.3 113.95 154.33C113.4 152.36 112.88 150.57 112.45 149.3C112.24 148.66 112.06 148.15 111.93 147.8C111.86 147.62 111.8 147.43 111.76 147.23C111.87 147.4 111.96 147.58 112.02 147.76C112.18 148.1 112.38 148.61 112.61 149.24C113.09 150.51 113.64 152.28 114.19 154.26C114.74 156.25 115.21 157.98 115.58 159.33C115.75 159.94 115.9 160.45 116.02 160.86C116.08 161.05 116.12 161.24 116.15 161.43Z" />
					<path id="Path 1307" class="shp1" d="M132.59 155.39C132.38 155.48 132.16 155.54 131.93 155.59C131.49 155.7 130.88 155.86 130.12 156.08C128.59 156.52 126.51 157.18 124.23 158.02C121.96 158.86 119.94 159.71 118.48 160.37C117.75 160.69 117.17 160.97 116.77 161.16C116.57 161.27 116.36 161.36 116.14 161.43C116.32 161.29 116.52 161.17 116.73 161.07C117.12 160.85 117.69 160.55 118.41 160.19C119.84 159.49 121.85 158.61 124.13 157.76C126.07 157.03 128.05 156.41 130.06 155.89C130.83 155.68 131.45 155.55 131.89 155.47C132.12 155.42 132.36 155.39 132.59 155.39L132.59 155.39Z" />
					<path id="Path 1308" class="shp1" d="M111.95 181.55C111.9 181.49 111.84 181.43 111.8 181.36L111.41 180.8C111.07 180.3 110.59 179.58 110.02 178.67C108.87 176.87 107.37 174.32 105.74 171.49C104.12 168.66 102.64 166.1 101.52 164.28L100.2 162.12L99.84 161.53C99.79 161.46 99.76 161.39 99.73 161.31C99.73 161.31 99.79 161.37 99.88 161.5C99.97 161.63 100.12 161.84 100.28 162.07C100.62 162.56 101.09 163.28 101.67 164.19C102.81 165.99 104.32 168.53 105.95 171.37C107.57 174.2 109.04 176.75 110.16 178.58L111.49 180.74C111.63 180.98 111.75 181.18 111.84 181.33C111.89 181.4 111.93 181.47 111.95 181.55Z" />
					<path id="Path 1309" class="shp1" d="M133.28 170.46C133.22 170.51 133.15 170.56 133.07 170.59L132.45 170.92L130.17 172.11C128.24 173.12 125.59 174.54 122.67 176.09C119.75 177.65 117.09 179.07 115.15 180.03C114.17 180.52 113.38 180.92 112.83 181.15L112.16 181.45C112.09 181.48 112.01 181.51 111.93 181.53C112 181.48 112.07 181.44 112.14 181.4L112.76 181.07L115.05 179.88C116.97 178.87 119.62 177.45 122.54 175.9C125.46 174.34 128.13 172.93 130.06 171.96C131.04 171.48 131.83 171.07 132.38 170.84L133.02 170.55C133.1 170.51 133.19 170.48 133.28 170.46Z" />
					<path id="Path 1310" class="shp2" d="M55.24 92.22C55.24 92.22 49.98 92.95 52.94 104.46C55.89 115.98 58.39 121.92 58.39 121.92C58.39 121.92 58.79 124.53 56.68 124.45C54.58 124.37 50.29 122.68 48.84 124.93C47.33 127.29 48.65 130.12 51.94 133.09C55.22 136.06 62.22 142.83 62.85 143.44C63.48 144.06 63.94 145.32 62.5 145.5C61.05 145.67 50.82 144.47 50.55 149.36C50.27 154.25 60.82 161.01 61.96 161.78C63.09 162.54 63.28 163.13 63.02 163.79C62.75 164.46 59.36 163.73 56.44 163.5C53.51 163.28 50.08 163.54 50.15 166.37C50.23 169.2 55.77 176.37 71.92 181.7L79.58 183.68L85.23 178.11C96.61 165.46 97.85 156.49 96.51 153.99C95.17 151.49 92.08 152.98 89.63 154.62C87.18 156.27 84.61 158.61 84.06 158.16C83.51 157.72 83.37 157.11 83.98 155.88C84.59 154.66 90.39 143.55 87.71 139.44C85.04 135.33 76.75 141.45 75.43 142.01C74.1 142.57 73.86 141.24 74.1 140.4C74.34 139.57 77.04 130.22 78.43 126C79.82 121.77 79.55 118.66 77.07 117.37C74.68 116.13 71.81 119.74 70.02 120.85C68.23 121.97 67.29 119.53 67.29 119.53C67.29 119.53 66.51 113.13 63.35 101.67C60.19 90.2 55.14 92.26 55.14 92.26" />
					<path id="Path 1311" class="shp1" d="M79.57 185.58C77.29 177.17 73.47 162.12 70.12 149.2C66.78 136.28 63.74 124.63 61.5 116.2C60.37 111.98 59.46 108.58 58.84 106.21C58.53 105.03 58.29 104.12 58.12 103.49L57.93 102.78C57.89 102.62 57.88 102.54 57.88 102.54C57.88 102.54 57.91 102.61 57.96 102.77C58.01 102.93 58.07 103.18 58.16 103.48C58.34 104.1 58.61 105.01 58.93 106.18C59.6 108.53 60.54 111.93 61.68 116.15C63.97 124.56 67.03 136.25 70.38 149.14C73.72 162.04 77.51 177.1 79.75 185.54" />
					<path id="Path 1312" class="shp1" d="M54.74 127.56C54.92 127.63 55.09 127.72 55.25 127.83C55.56 128.02 56.01 128.3 56.57 128.65C57.68 129.37 59.18 130.39 60.81 131.54L64.98 134.52L66.25 135.4C66.41 135.5 66.56 135.62 66.69 135.75C66.51 135.68 66.34 135.59 66.18 135.48C65.87 135.3 65.42 135.01 64.86 134.66C63.76 133.93 62.28 132.88 60.64 131.73L56.45 128.79L55.18 127.9C55.02 127.81 54.87 127.69 54.74 127.56L54.74 127.56Z" />
					<path id="Path 1313" class="shp1" d="M67.33 135.39C67.28 135.35 69.25 132.17 71.73 128.28C74.21 124.39 76.28 121.26 76.34 121.3C76.4 121.33 74.43 124.52 71.94 128.41C69.45 132.3 67.39 135.41 67.33 135.39Z" />
					<path id="Path 1314" class="shp1" d="M71.58 155.43C71.7 155.27 71.84 155.14 72 155.02L73.19 153.98C74.19 153.09 75.58 151.87 77.05 150.46C78.53 149.05 79.83 147.74 80.76 146.78C81.21 146.34 81.57 145.94 81.87 145.64C82 145.49 82.15 145.36 82.31 145.24C82.21 145.41 82.09 145.56 81.95 145.7C81.72 145.99 81.36 146.4 80.91 146.89C80.02 147.89 78.73 149.23 77.24 150.64C75.75 152.05 74.35 153.26 73.32 154.11C72.8 154.55 72.37 154.87 72.07 155.1C71.92 155.22 71.75 155.34 71.58 155.43L71.58 155.43Z" />
					<path id="Path 1315" class="shp1" d="M58.63 150.86C58.81 150.88 58.98 150.92 59.15 150.98L60.55 151.43C61.73 151.8 63.36 152.34 65.14 152.94C66.93 153.54 68.55 154.11 69.71 154.53L71.09 155.03C71.26 155.09 71.42 155.16 71.58 155.25C71.4 155.23 71.23 155.19 71.06 155.13L69.65 154.68C68.48 154.31 66.85 153.77 65.06 153.17C63.28 152.56 61.66 152 60.5 151.58L59.12 151.07C58.95 151.02 58.78 150.95 58.63 150.86Z" />
					<path id="Path 1316" class="shp1" d="M60.12 169.03C60.35 169.06 60.58 169.12 60.79 169.19L62.59 169.74C64.1 170.22 66.19 170.88 68.49 171.64C70.79 172.4 72.87 173.09 74.37 173.61L76.14 174.23C76.36 174.3 76.57 174.38 76.78 174.49C76.55 174.45 76.33 174.4 76.11 174.32L74.31 173.77C72.8 173.3 70.71 172.63 68.41 171.87C66.11 171.11 64.03 170.42 62.54 169.91L60.77 169.28C60.54 169.22 60.33 169.13 60.12 169.03Z" />
					<path id="Path 1317" class="shp1" d="M76.42 174.24C76.57 174.05 76.75 173.88 76.94 173.72L78.4 172.34C79.64 171.18 81.34 169.56 83.16 167.72C84.99 165.89 86.61 164.18 87.77 162.94L89.14 161.47C89.3 161.29 89.48 161.11 89.67 160.95C89.54 161.16 89.39 161.36 89.22 161.54C88.92 161.9 88.47 162.42 87.89 163.06C86.77 164.33 85.17 166.06 83.34 167.9C81.5 169.73 79.79 171.34 78.52 172.47C77.88 173.03 77.36 173.49 77 173.8C76.82 173.96 76.62 174.11 76.42 174.24Z" />
					<path id="Path 1318" class="shp0" d="M32.4 23.53L28.08 22.2C28.08 22.2 26.95 25.83 23.16 24.72C21.66 24.31 20.58 22.99 20.47 21.43C20.36 20.14 20.88 18.86 21.87 18.01C22.98 17.03 24.93 16.43 27.67 17.85L30.72 8.12L26.44 6.79L24.67 12.49C24.67 12.49 18.19 12.17 16.14 18.77C14.17 25.09 19.37 28.32 21.8 29.08C23.64 29.65 30.1 31.18 32.4 23.53Z" />
					<path id="Rectangle 102" class="shp0" d="M31.36 6.11L27.02 4.76L28.29 0.71L32.62 2.07L31.36 6.11Z" />
					<path id="Path 1319" class="shp2" d="M44.32 12.54L46.05 12.09C45.95 11.7 46.01 11.27 46.22 10.92C46.43 10.57 46.77 10.32 47.17 10.22C47.76 10.04 48.4 10.26 48.77 10.76C49.07 11.17 49.16 11.7 49.01 12.19C48.85 12.75 48.32 13.36 47.1 13.46L48.13 17.36L49.84 16.92L49.24 14.64C50.57 13.83 51.2 12.24 50.77 10.74C50.11 8.21 47.67 8.22 46.71 8.47C45.97 8.65 43.49 9.49 44.32 12.54Z" />
					<path id="Rectangle 103" class="shp2" d="M48.7 17.96L50.44 17.49L50.88 19.12L49.13 19.58L48.7 17.96Z" />
					<path id="Path 1320" class="shp2" d="M187.21 57.34L188.89 57.94C189.03 57.56 189.32 57.25 189.7 57.08C190.07 56.91 190.5 56.91 190.88 57.06C191.46 57.24 191.86 57.78 191.88 58.39C191.9 58.9 191.68 59.39 191.27 59.71C190.83 60.08 190.04 60.28 188.97 59.67L187.6 63.46L189.26 64.06L190.07 61.85C191.62 61.95 193.05 60.99 193.55 59.52C194.44 57.06 192.44 55.69 191.5 55.35C190.78 55.07 188.25 54.36 187.21 57.34Z" />
					<path id="Rectangle 104" class="shp2" d="M187.32 64.22L189.01 64.83L188.44 66.41L186.75 65.8L187.32 64.22Z" />
					<path id="Path 1321" class="shp0" d="M8.7 76.6L12.24 75.23C12.24 75.23 11.09 72.24 14.18 70.99C15.39 70.47 16.79 70.78 17.68 71.75C18.42 72.55 18.74 73.66 18.53 74.73C18.31 75.96 17.34 77.39 14.78 77.88L17.87 85.9L21.42 84.55L19.6 79.85C19.6 79.85 24.03 76.67 21.95 71.23C19.94 66.02 14.79 66.61 12.81 67.38C11.28 67.97 6.22 70.35 8.7 76.6Z" />
					<path id="Rectangle 105" class="shp0" d="M18.51 87.56L22.09 86.18L23.37 89.52L19.8 90.9L18.51 87.56Z" />
					<path id="Path 1322" class="shp0" d="M188.59 90.1L186.07 91.07C186.07 91.07 186.89 93.19 184.7 94.08C183.84 94.44 182.85 94.22 182.22 93.54C181.69 92.97 181.47 92.19 181.61 91.43C181.77 90.54 182.46 89.55 184.27 89.21L182.1 83.51L179.6 84.47L180.89 87.8C179.02 89.23 178.34 91.73 179.22 93.91C180.64 97.6 184.28 97.18 185.7 96.64C186.77 96.22 190.36 94.53 188.59 90.1Z" />
					<path id="Rectangle 106" class="shp0" d="M181.64 82.34L179.11 83.31L178.2 80.95L180.73 79.98L181.64 82.34Z" />
				</g>
				<g id="freepik--Floor--inject-4">
					<path id="Path 1323" class="shp3" d="M195.72 187.98C195.72 188.05 151.97 188.1 98 188.1C44.04 188.1 0.28 188.05 0.28 187.98C0.28 187.92 44.03 187.87 98 187.87C151.98 187.87 195.72 187.92 195.72 187.98Z" />
				</g>
				<g id="freepik--Plant--inject-4">
					<path id="Path 1324" class="shp4" d="M28.35 176.49C28.79 174.86 27.7 173.23 26.5 172.06C25.31 170.9 23.88 169.83 23.25 168.26C22.24 165.73 23.6 162.46 21.88 160.35C20.87 159.11 19.05 158.69 18.15 157.36C17.74 156.63 17.46 155.83 17.34 154.99C16.39 150.79 14.32 146.92 11.35 143.79C11.16 147.53 11.97 151.26 13.71 154.59C14.4 155.91 15.26 157.21 15.48 158.69C15.85 161.09 14.51 163.56 15.1 165.93C15.78 168.63 18.81 170.44 18.95 173.22C19.07 175.57 17.03 177.65 17.18 179.99C17.3 180.99 17.67 181.94 18.24 182.77C20.05 185.8 22.73 187.88 26.77 187.81L31.73 187.98L28.35 176.49Z" />
					<g id="Group 114" style="opacity: 0.302">
						<path id="Path 1325" class="shp5" d="M28.35 176.49C28.79 174.86 27.7 173.23 26.5 172.06C25.31 170.9 23.88 169.83 23.25 168.26C22.24 165.73 23.6 162.46 21.88 160.35C20.87 159.11 19.05 158.69 18.15 157.36C17.74 156.63 17.46 155.83 17.34 154.99C16.39 150.79 14.32 146.92 11.35 143.79C11.16 147.53 11.97 151.26 13.71 154.59C14.4 155.91 15.26 157.21 15.48 158.69C15.85 161.09 14.51 163.56 15.1 165.93C15.78 168.63 18.81 170.44 18.95 173.22C19.07 175.57 17.03 177.65 17.18 179.99C17.3 180.99 17.67 181.94 18.24 182.77C20.05 185.8 22.73 187.88 26.77 187.81L31.73 187.98L28.35 176.49Z" />
					</g>
					<path id="Path 1326" class="shp3" d="M32.73 188.09C33.18 188.16 33.65 188.15 34.1 188.06C34.64 187.98 35.18 187.84 35.7 187.65C36.42 187.4 37.1 187.03 37.7 186.56C38.06 186.27 38.34 185.9 38.51 185.47C38.66 184.99 38.74 184.49 38.74 183.99C38.75 183.45 38.79 182.92 38.86 182.39C38.96 181.82 39.16 181.28 39.47 180.8C40.05 179.77 41.02 178.79 41.33 177.4C41.64 176.01 41.43 174.55 41.2 173.06C40.97 171.57 40.76 169.96 41.32 168.4C41.87 166.84 42.94 165.45 43.48 163.71C44.03 161.96 43.77 160.04 43.88 158.17C43.92 157.22 44.14 156.28 44.53 155.41C44.93 154.53 45.49 153.71 45.92 152.79C46.81 150.92 46.96 148.81 47.19 146.73C47.31 145.69 47.43 144.63 47.55 143.57C47.62 142.49 47.81 141.43 48.1 140.39C48.44 139.35 48.83 138.32 49.29 137.32C49.52 136.81 49.71 136.27 49.86 135.73C49.95 135.16 50 134.59 50.02 134.02C50.08 132.87 50.03 131.72 49.89 130.59C49.76 129.45 49.55 128.31 49.43 127.17C49.43 127.09 49.43 127.03 49.43 126.97L49.4 126.74L49.2 126.84C48.15 127.38 47.24 128.15 46.54 129.09C45.86 130.02 45.3 131.03 44.9 132.11C44.07 134.24 43.78 136.47 43.36 138.6C42.95 140.73 42.41 142.83 41.33 144.6C40.78 145.48 40.12 146.29 39.55 147.15C38.94 147.98 38.52 148.95 38.32 149.97C38.03 152.07 39.18 153.91 38.94 155.77C38.84 156.68 38.53 157.56 38.06 158.34C37.62 159.13 37.08 159.87 36.58 160.6C36.06 161.32 35.62 162.09 35.25 162.89C34.9 163.68 34.69 164.52 34.64 165.37C34.52 167.05 34.75 168.63 34.64 170.13C34.5 171.55 34.08 172.94 33.41 174.2C32.81 175.42 32.15 176.52 31.59 177.59C31.31 178.13 31.05 178.65 30.84 179.18C30.63 179.68 30.49 180.21 30.39 180.74C30.24 181.68 30.23 182.63 30.36 183.57C30.49 184.88 30.98 186.13 31.77 187.18C31.9 187.34 32.03 187.48 32.18 187.62C32.27 187.72 32.38 187.82 32.5 187.89C32.69 188.03 32.78 188.09 32.78 188.09C32.43 187.81 32.11 187.5 31.82 187.15C31.06 186.09 30.6 184.85 30.49 183.56C30.38 182.63 30.4 181.69 30.56 180.77C30.65 180.25 30.8 179.74 31 179.25C31.22 178.71 31.48 178.19 31.76 177.69C32.32 176.63 32.99 175.53 33.6 174.3C34.29 173.02 34.72 171.61 34.87 170.15C35 168.63 34.77 167.03 34.89 165.4C34.95 164.57 35.15 163.76 35.49 163C35.87 162.22 36.31 161.47 36.82 160.76C37.32 160.03 37.86 159.29 38.32 158.48C38.83 157.67 39.15 156.75 39.27 155.8C39.51 153.83 38.36 151.98 38.66 150.02C38.85 149.05 39.26 148.12 39.85 147.32C40.41 146.48 41.07 145.67 41.62 144.76C42.75 142.95 43.29 140.81 43.7 138.67C44.11 136.54 44.42 134.32 45.23 132.23C45.63 131.18 46.16 130.19 46.83 129.29C47.51 128.39 48.38 127.65 49.39 127.13L49.16 127.01C49.16 127.07 49.16 127.14 49.18 127.21C49.31 128.37 49.51 129.5 49.62 130.64C49.76 131.76 49.81 132.89 49.75 134.01C49.73 134.57 49.68 135.12 49.6 135.67C49.46 136.2 49.27 136.71 49.05 137.21C48.59 138.22 48.19 139.26 47.85 140.31C47.55 141.36 47.37 142.44 47.29 143.53C47.18 144.6 47.06 145.66 46.94 146.7C46.7 148.79 46.55 150.87 45.7 152.67C45.26 153.56 44.73 154.4 44.32 155.3C43.91 156.2 43.69 157.17 43.65 158.16C43.54 160.07 43.79 161.94 43.27 163.63C42.76 165.33 41.68 166.73 41.14 168.33C40.59 169.93 40.79 171.62 41.03 173.1C41.27 174.58 41.51 176.05 41.19 177.36C40.87 178.67 39.96 179.66 39.36 180.71C39.05 181.22 38.84 181.78 38.75 182.37C38.68 182.91 38.65 183.45 38.64 183.99C38.64 184.48 38.57 184.97 38.43 185.43C38.27 185.84 38 186.2 37.66 186.47C37.08 186.94 36.43 187.31 35.72 187.57C35.21 187.77 34.68 187.92 34.13 188.01C33.8 188.07 33.47 188.11 33.13 188.11C32.85 188.09 32.73 188.09 32.73 188.09Z" />
					<path id="Path 1327" class="shp3" d="M48.39 129.7C48.37 129.75 48.35 129.8 48.34 129.85L48.24 130.3C48.14 130.69 48.02 131.28 47.83 132.01C47.65 132.75 47.19 133.58 46.81 134.6C46.35 135.75 45.96 136.93 45.63 138.12C45.25 139.44 44.92 140.91 44.56 142.48C44.26 144.16 43.73 145.79 42.98 147.32C42.57 148.12 42.09 148.94 41.75 149.83C41.39 150.75 41.15 151.7 41.04 152.67C40.79 154.69 40.43 156.69 39.97 158.67C38.98 162.73 38.03 166.6 37.16 170.12C36.3 173.65 35.49 176.8 34.81 179.46C34.14 182.13 33.63 184.25 33.26 185.77C33.09 186.5 32.95 187.07 32.85 187.49C32.81 187.67 32.78 187.82 32.75 187.93C32.75 187.98 32.75 188.03 32.75 188.09C32.78 188.04 32.8 187.99 32.81 187.94C32.84 187.82 32.88 187.68 32.94 187.5C33.05 187.08 33.2 186.51 33.4 185.79C33.8 184.29 34.36 182.15 35.06 179.52C35.75 176.88 36.56 173.7 37.47 170.19C38.38 166.69 39.3 162.8 40.3 158.73C40.76 156.75 41.11 154.74 41.34 152.72C41.46 151.77 41.69 150.84 42.03 149.94C42.38 149.06 42.83 148.27 43.24 147.45C44.12 145.84 44.47 144.1 44.82 142.54C45.17 140.98 45.48 139.5 45.84 138.18C46.21 136.86 46.59 135.68 46.97 134.66C47.35 133.65 47.77 132.8 47.95 132.04C48.13 131.28 48.22 130.72 48.3 130.31C48.33 130.13 48.35 129.98 48.38 129.87C48.39 129.76 48.4 129.7 48.39 129.7Z" />
					<path id="Path 1328" class="shp4" d="M33.61 188.11C36.84 186.18 37.77 180.34 36.42 176.82C35.07 173.31 32.71 170.1 32.34 166.35C32.06 163.47 33.01 160.51 32.34 157.69C31.44 153.89 27.73 150.95 27.77 147.04C27.79 144.85 29.04 142.79 28.94 140.6C28.82 137.91 26.76 135.78 25.48 133.42C23.53 129.79 23.4 125.51 22.73 121.46C22.06 117.42 20.52 113.05 16.91 111.06C16.38 114.51 15.48 116.87 15.76 121.54C15.87 123.22 17.81 126.41 18.08 130.1C18.24 132.32 18.34 134.5 18.48 136.7C18.62 138.9 18.75 141.02 19.52 143.02C20.11 144.56 21.05 145.95 21.49 147.54C22.31 150.51 21.23 153.73 21.89 156.76C22.45 159.32 24.22 161.52 24.59 164.11C25.09 167.76 22.73 171.54 23.94 175.02C24.54 176.74 25.96 178.12 26.36 179.91C26.67 181.29 26.33 182.76 26.62 184.14C27.06 186.38 31.34 188.13 33.61 187.98" />
					<path id="Path 1329" class="shp3" d="M17.8 114.46C17.79 114.53 17.79 114.59 17.8 114.66C17.8 114.8 17.84 114.99 17.87 115.22C17.95 115.72 18.03 116.45 18.2 117.4C18.37 118.35 18.87 119.42 19.26 120.71C19.65 122 20.08 123.48 20.45 125.14C20.81 126.79 21.13 128.64 21.45 130.62C21.77 132.6 22.13 134.75 23.11 136.82C23.55 137.85 24.08 138.88 24.44 139.99C24.81 141.12 25.04 142.3 25.12 143.49C25.3 146.01 25.62 148.52 26.07 151.01C27.06 156.12 28.01 160.98 28.87 165.41C29.72 169.84 30.59 173.8 31.28 177.14C31.97 180.49 32.53 183.16 32.93 185.05L33.37 187.2C33.42 187.43 33.46 187.61 33.5 187.75C33.51 187.81 33.53 187.88 33.55 187.94C33.56 187.87 33.56 187.81 33.55 187.74C33.53 187.6 33.5 187.42 33.46 187.18C33.36 186.67 33.22 185.94 33.05 185.02C32.68 183.13 32.16 180.43 31.49 177.1C30.83 173.77 30.03 169.77 29.15 165.36C28.27 160.94 27.38 156.06 26.39 150.96C25.93 148.47 25.61 145.96 25.43 143.43C25.35 142.22 25.11 141.02 24.73 139.86C24.33 138.74 23.82 137.7 23.36 136.67C22.39 134.64 22.03 132.52 21.69 130.55C21.36 128.58 21.04 126.73 20.65 125.07C20.27 123.4 19.84 121.92 19.41 120.64C18.98 119.37 18.49 118.29 18.3 117.36C18.11 116.44 18.01 115.69 17.92 115.2C17.87 114.97 17.84 114.79 17.81 114.64C17.81 114.58 17.81 114.52 17.8 114.46L17.8 114.46Z" />
				</g>
				<g id="freepik--speech-bubble--inject-4">
					<path id="Path 1330" class="shp4" d="M173.9 22L172.13 22C172.13 22.4 171.97 22.79 171.68 23.08C171.39 23.36 171 23.52 170.59 23.51C169.98 23.53 169.43 23.16 169.21 22.59C169.02 22.13 169.07 21.6 169.33 21.17C169.64 20.67 170.29 20.23 171.48 20.43L171.48 16.45L169.74 16.45L169.74 18.78C168.27 19.21 167.27 20.57 167.3 22.1C167.3 24.67 169.61 25.27 170.6 25.27C171.36 25.29 173.93 25.11 173.9 22Z" />
					<path id="Rectangle 107" class="shp4" d="M171.49 15.64L169.72 15.64L169.72 13.99L171.49 13.99L171.49 15.64Z" />
					<path id="Path 1331" class="shp3" d="M183.55 19.64C183.56 19.57 183.56 19.49 183.55 19.42C183.55 19.26 183.55 19.04 183.55 18.76C183.55 18.62 183.55 18.46 183.53 18.28C183.51 18.1 183.48 17.91 183.45 17.7C183.42 17.5 183.39 17.26 183.35 17.03L183.17 16.27C182.84 14.98 182.3 13.74 181.57 12.62C179.44 9.25 175.86 7.07 171.88 6.7C171.3 6.65 170.7 6.64 170.11 6.66C169.82 6.66 169.51 6.66 169.23 6.72L168.32 6.86C167.07 7.09 165.85 7.5 164.72 8.08C163.54 8.71 162.45 9.5 161.5 10.43C160.51 11.43 159.69 12.57 159.07 13.82C158.39 15.1 157.94 16.5 157.76 17.94C157.7 18.3 157.67 18.67 157.66 19.04C157.63 19.41 157.63 19.78 157.64 20.15C157.74 22.53 158.48 24.83 159.79 26.81L159.79 26.67C159.17 28.21 158.57 29.72 157.97 31.19L157.87 31.46L158.15 31.38L162.97 30.05L162.85 30.03C164.48 31.26 166.37 32.08 168.38 32.44C169.31 32.62 170.26 32.67 171.2 32.62C171.66 32.61 172.11 32.57 172.56 32.49L173.22 32.38C173.44 32.35 173.66 32.28 173.86 32.23C176.83 31.48 179.44 29.69 181.21 27.19C181.88 26.27 182.41 25.26 182.8 24.19C182.88 23.96 182.96 23.75 183.03 23.52C183.11 23.29 183.15 23.08 183.2 22.88C183.25 22.68 183.3 22.47 183.34 22.29C183.39 22.1 183.4 21.92 183.43 21.75C183.47 21.41 183.53 21.11 183.54 20.86C183.56 20.62 183.54 20.39 183.54 20.2C183.54 20.01 183.54 19.9 183.54 19.8C183.54 19.69 183.54 19.66 183.54 19.66C183.54 19.7 183.54 19.75 183.54 19.8C183.54 19.9 183.54 20.03 183.51 20.2C183.48 20.37 183.49 20.6 183.47 20.86C183.45 21.12 183.38 21.42 183.33 21.74C182.47 26.75 178.74 30.78 173.81 32.01C173.6 32.06 173.39 32.12 173.18 32.16L172.53 32.26C172.09 32.33 171.65 32.37 171.2 32.38C170.28 32.43 169.35 32.37 168.43 32.2C166.47 31.84 164.62 31.02 163.04 29.82L162.98 29.78L162.92 29.78L158.09 31.11L158.26 31.3L160.07 26.79L160.1 26.71L160.06 26.65C159.19 25.33 158.57 23.86 158.24 22.32C158.09 21.6 157.99 20.87 157.96 20.14C157.95 19.78 157.96 19.41 157.99 19.05C157.99 18.69 158.02 18.33 158.07 17.98C158.24 16.57 158.66 15.21 159.31 13.94C159.92 12.73 160.72 11.61 161.68 10.63C162.61 9.72 163.68 8.94 164.84 8.33C165.94 7.75 167.13 7.34 168.36 7.11L169.24 6.97C169.54 6.93 169.83 6.93 170.13 6.91C170.7 6.88 171.28 6.89 171.86 6.94C175.76 7.28 179.3 9.41 181.43 12.7C182.16 13.8 182.71 15.01 183.05 16.29L183.25 17.03C183.29 17.27 183.33 17.48 183.36 17.7C183.4 17.92 183.42 18.1 183.45 18.27C183.49 18.45 183.48 18.61 183.49 18.75C183.49 19.03 183.53 19.24 183.54 19.4C183.53 19.48 183.53 19.56 183.55 19.64Z" />
				</g>
				<g id="freepik--question-mark--inject-4">
					<path id="Path 1332" class="shp4" d="M51.55 71.84L77.12 71.84C77.12 71.84 77.12 50.38 99.42 50C111 49.79 117.01 57.38 119.45 63.2C122.29 69.95 121.43 77.64 117.63 83.9C113.3 91.05 103.96 98.24 86.73 95.2L86.57 152.15L111.85 152.15L111.85 118.39C111.85 118.39 147.3 109.23 147.3 70.14C147.3 32.76 117.07 24.69 100.82 24.17C91.78 23.88 88.51 23.49 77.32 25.08C63.08 27.11 51.25 43.66 51.55 71.84Z" />
					<path id="Rectangle 108" class="shp4" d="M86.5 164.02L112.15 164.02L112.15 187.98L86.5 187.98L86.5 164.02Z" />
					<path id="Rectangle 109" class="shp6" d="M86.5 164.02L112.15 164.02L112.15 187.98L86.5 187.98L86.5 164.02Z" />
					<path id="Path 1333" class="shp6" d="M51.55 71.84L77.12 71.84C77.12 71.84 77.12 50.38 99.42 50C111 49.79 117.01 57.38 119.45 63.2C122.29 69.95 121.43 77.64 117.63 83.9C113.3 91.05 103.96 98.24 86.73 95.2L86.57 152.15L111.85 152.15L111.85 118.39C111.85 118.39 147.3 109.23 147.3 70.14C147.3 32.76 117.07 24.69 100.82 24.17C91.78 23.88 88.51 23.49 77.32 25.08C63.08 27.11 51.25 43.66 51.55 71.84Z" />
					<path id="Path 1334" class="shp4" d="M40.96 71.84L66.53 71.84C66.53 71.84 66.53 50.38 88.83 50C100.42 49.79 106.42 57.38 108.86 63.2C111.7 69.95 110.84 77.64 107.04 83.9C102.71 91.05 93.21 97.55 75.98 94.53L75.98 152.15L101.26 152.15L101.26 118.39C101.26 118.39 136.71 109.23 136.71 70.14C136.71 32.76 103.18 24.08 88.84 24.08C77.86 24.09 40.48 26.75 40.96 71.84Z" />
					<path id="Path 1335" class="shp7" d="M40.96 71.84L66.53 71.84C66.53 71.84 66.53 50.38 88.83 50C100.42 49.79 106.42 57.38 108.86 63.2C111.7 69.95 110.84 77.64 107.04 83.9C102.71 91.05 93.21 97.55 75.98 94.53L75.98 152.15L101.26 152.15L101.26 118.39C101.26 118.39 136.71 109.23 136.71 70.14C136.71 32.76 103.18 24.08 88.84 24.08C77.86 24.09 40.48 26.75 40.96 71.84Z" />
					<path id="Rectangle 110" class="shp4" d="M75.91 164.02L101.56 164.02L101.56 187.98L75.91 187.98L75.91 164.02Z" />
					<path id="Rectangle 111" class="shp7" d="M75.91 164.02L101.56 164.02L101.56 187.98L75.91 187.98L75.91 164.02Z" />
					<path id="Path 1336" class="shp3" d="M91.72 50.11C91.59 50.12 91.47 50.12 91.34 50.11C91.09 50.11 90.72 50.03 90.25 50.02C88.91 49.96 87.57 50.01 86.24 50.19C84.27 50.44 82.33 50.9 80.45 51.55C79.35 51.94 78.27 52.4 77.23 52.94C76.11 53.5 75.05 54.19 74.08 54.98C73.11 55.78 72.24 56.7 71.5 57.71C70.79 58.64 70.14 59.62 69.56 60.64C68.59 62.37 67.83 64.21 67.27 66.12C66.9 67.41 66.64 68.72 66.5 70.06C66.45 70.53 66.44 70.9 66.42 71.15C66.42 71.27 66.41 71.4 66.39 71.53C66.38 71.4 66.38 71.27 66.39 71.15C66.39 70.89 66.39 70.52 66.43 70.05C66.53 68.7 66.76 67.37 67.13 66.06C67.66 64.14 68.42 62.28 69.39 60.52C69.97 59.49 70.62 58.5 71.33 57.56C72.09 56.54 72.96 55.61 73.94 54.8C74.93 53.99 76 53.3 77.14 52.73C78.19 52.18 79.27 51.71 80.38 51.31C82.28 50.66 84.23 50.22 86.22 49.98C87.56 49.82 88.91 49.79 90.25 49.89C90.62 49.91 90.98 49.96 91.34 50.02C91.47 50.04 91.6 50.07 91.72 50.11Z" />
					<path id="Path 1337" class="shp3" d="M130.24 45.56C130.24 45.56 130.21 45.53 130.15 45.46C130.1 45.39 130.02 45.28 129.93 45.15L129.09 43.96C128.9 43.7 128.71 43.4 128.48 43.1L127.68 42.13L126.77 41.01C126.44 40.62 126.05 40.24 125.66 39.83C125.27 39.42 124.87 38.98 124.42 38.56C123.97 38.14 123.49 37.71 122.99 37.27C122.74 37.05 122.5 36.82 122.23 36.59L121.41 35.94C120.85 35.5 120.29 35.05 119.68 34.61C117.04 32.72 114.24 31.06 111.31 29.66L108.97 28.61L106.66 27.72C105.9 27.41 105.13 27.19 104.39 26.94C103.64 26.69 102.92 26.44 102.17 26.27L100.06 25.71C99.37 25.53 98.69 25.42 98.04 25.27C97.39 25.12 96.76 24.99 96.15 24.91L94.38 24.66C93.26 24.47 92.23 24.43 91.33 24.34C90.89 24.3 90.45 24.25 90.08 24.24L89.03 24.21L87.57 24.16L87.19 24.16L87.06 24.16C87.1 24.15 87.14 24.15 87.19 24.16L87.57 24.16L89.03 24.16L90.09 24.16C90.47 24.16 90.89 24.21 91.34 24.24C92.23 24.32 93.27 24.35 94.39 24.53L96.16 24.77C96.78 24.84 97.41 25 98.06 25.12C98.72 25.24 99.39 25.36 100.09 25.56L102.22 26.11C102.95 26.28 103.68 26.56 104.43 26.78C105.18 27.01 105.95 27.22 106.71 27.56L109.03 28.45L111.38 29.5C114.33 30.91 117.14 32.58 119.79 34.49C120.4 34.93 120.96 35.4 121.52 35.84L122.34 36.44C122.61 36.66 122.85 36.88 123.1 37.12L124.53 38.45C124.97 38.89 125.37 39.33 125.76 39.74C126.16 40.14 126.53 40.53 126.86 40.93L127.75 42.06L128.54 43.04C128.76 43.35 128.95 43.65 129.13 43.92C129.48 44.44 129.75 44.85 129.94 45.14L130.14 45.46C130.18 45.49 130.21 45.52 130.24 45.56Z" />
					<path id="Path 1338" class="shp3" d="M127.57 100.44C127.52 100.54 127.46 100.63 127.38 100.71L126.77 101.43C126.52 101.75 126.2 102.14 125.81 102.57C125.41 103 124.99 103.5 124.48 104.02C123.96 104.55 123.42 105.13 122.79 105.72C122.17 106.31 121.49 106.93 120.77 107.57C117.6 110.34 114.14 112.73 110.43 114.71C109.57 115.15 108.76 115.59 107.98 115.93C107.19 116.27 106.46 116.62 105.79 116.91C105.12 117.19 104.5 117.42 103.96 117.63C103.42 117.84 102.94 118.01 102.55 118.13L101.67 118.42C101.57 118.46 101.46 118.49 101.35 118.51C101.45 118.45 101.55 118.41 101.65 118.38L102.54 118.05C102.92 117.91 103.39 117.73 103.92 117.51C104.46 117.29 105.08 117.07 105.74 116.76C106.41 116.44 107.14 116.14 107.91 115.76C108.67 115.37 109.49 114.97 110.35 114.52C112.03 113.59 113.85 112.5 115.69 111.24C117.52 109.99 119.18 108.66 120.65 107.42C121.37 106.78 122.06 106.18 122.67 105.58C123.29 104.98 123.86 104.43 124.37 103.91C124.88 103.39 125.33 102.91 125.73 102.48C126.13 102.06 126.45 101.68 126.72 101.37L127.34 100.67C127.41 100.59 127.49 100.51 127.57 100.44Z" />
					<path id="Path 1339" class="shp3" d="M100.81 150.14C100.74 150.14 100.69 143.03 100.69 134.27C100.69 125.5 100.74 118.38 100.81 118.38C100.88 118.38 100.93 125.49 100.93 134.27C100.93 143.04 100.87 150.14 100.81 150.14Z" />
					<path id="Path 1340" class="shp3" d="M101.78 186.36C101.72 186.36 101.67 181.37 101.67 175.22C101.67 169.07 101.72 164.07 101.78 164.07C101.85 164.07 101.9 169.06 101.9 175.22C101.9 181.37 101.85 186.36 101.78 186.36Z" />
				</g>
				<g id="freepik--Character--inject-4">
					<path id="Path 1341" class="shp4" d="M126.95 68.45C126.51 69.33 128.16 70.06 129.11 70.35C130.08 70.58 131.08 70.65 132.08 70.55C133.41 70.48 134.77 70.35 135.91 69.7C136.92 69.08 137.72 68.18 138.22 67.11C138.72 66.04 139.11 64.93 139.4 63.79C139.4 63.79 128.94 64.48 126.95 68.45Z" />
					<g id="Group 115" style="opacity: 0.4">
						<path id="Path 1342" class="shp5" d="M126.95 68.45C126.51 69.33 128.16 70.06 129.11 70.35C130.08 70.58 131.08 70.65 132.08 70.55C133.41 70.48 134.77 70.35 135.91 69.7C136.92 69.08 137.72 68.18 138.22 67.11C138.72 66.04 139.11 64.93 139.4 63.79C139.4 63.79 128.94 64.48 126.95 68.45Z" />
					</g>
					<path id="Path 1343" class="shp4" d="M156.49 65.61C158.21 66.84 160.28 67.48 162.39 67.46C163.41 67.52 164.41 67.21 165.21 66.58C165.55 66.26 165.8 65.87 166.15 65.56C166.39 65.36 166.67 65.21 166.9 64.99C167.14 64.78 167.26 64.46 167.22 64.15C167.13 63.76 166.92 63.42 166.61 63.17C165.41 62.49 163.97 62.52 162.59 62.55C161.21 62.61 159.85 62.88 158.54 63.34C157.47 63.71 156.35 64.23 155.81 65.2" />
					<g id="Group 116" style="opacity: 0.4">
						<path id="Path 1344" class="shp5" d="M167.22 64.15C167.06 63.77 166.79 63.46 166.44 63.26C165.24 62.58 163.97 62.52 162.59 62.55C161.21 62.61 159.85 62.88 158.54 63.34C157.47 63.71 156.35 64.23 155.81 65.2L156.49 65.61C158.21 66.84 160.28 67.48 162.39 67.46C163.41 67.52 164.41 67.21 165.21 66.58C165.55 66.26 165.8 65.87 166.15 65.56C166.39 65.36 166.67 65.21 166.9 64.99C167.14 64.78 167.26 64.46 167.22 64.15Z" />
					</g>
					<path id="Path 1345" class="shp4" d="M136.07 81.5L158.13 81.79C158.22 81.79 158.31 81.75 158.36 81.67C158.42 81.6 158.43 81.51 158.41 81.42L155.82 73.35C155.82 73.35 156.2 69.31 156.72 64.46C157.53 57.09 158.59 47.82 158.61 47.85C157.1 43.62 148.19 42.9 148.19 42.9L138.04 43.5L137.69 42.91L134.77 44.27C134.13 44.56 133.52 44.91 132.93 45.3C131 46.59 126.36 49.55 125.51 52.85C123.54 60.48 126.86 69 126.86 69L129 67.34C129.54 66.92 130.1 66.54 130.69 66.21L134.96 77.67C134.45 77.99 134.11 78.53 134.03 79.14C134 80.07 134.48 81.18 136.07 81.5Z" />
					<g id="Group 117" style="opacity: 0.302">
						<path id="Path 1346" class="shp5" d="M145.53 67.99C146.23 64.23 145.87 60.36 145.49 56.55C144.27 59.65 144.31 63.19 143.02 66.26C142.86 66.59 142.74 66.93 142.67 67.29C142.6 67.65 142.71 68.02 142.96 68.29C143.32 68.61 143.85 68.43 144.32 68.38C144.74 68.3 145.15 68.17 145.53 67.99Z" />
					</g>
					<g id="Group 118" style="opacity: 0.4">
						<path id="Path 1347" class="shp5" d="M137.39 76.7C139.16 77.32 141.05 76.17 142.92 75.97C144.16 75.83 145.4 76.12 146.63 76.32C149.12 76.72 151.65 76.78 154.16 76.5C154.54 76.48 154.92 76.38 155.26 76.21C155.63 75.97 155.84 75.56 155.84 75.12C151.67 74.67 147.51 74.43 143.34 74.01C142.3 73.83 141.24 73.86 140.21 74.11C138.96 74.5 138 75.48 137.12 76.46" />
					</g>
					<path id="Path 1348" class="shp4" d="M166.58 62.7C164.78 58.64 158.43 47.41 158.43 47.41L153.51 53.58L154.66 65.68C154.66 65.68 157.26 62.78 164.52 62.73C165.59 62.77 166.58 63.29 167.22 64.15L166.58 62.7Z" />
					<path id="Path 1349" class="shp3" d="M137.05 60.55C136.7 59.69 136.42 58.8 136.22 57.89C135.95 57.01 135.75 56.11 135.62 55.19C135.97 56.05 136.24 56.94 136.45 57.85C136.72 58.73 136.92 59.63 137.05 60.55L137.05 60.55Z" />
					<path id="Path 1350" class="shp3" d="M153.14 52.76C153.3 52.87 153.45 53 153.58 53.14C153.97 53.52 154.34 53.92 154.68 54.35C155.82 55.75 156.63 57.39 157.03 59.16C157.24 60.13 157.28 61.13 157.17 62.12C157.06 63.03 156.88 63.83 156.77 64.5C156.65 65.17 156.58 65.72 156.55 66.1C156.55 66.3 156.53 66.5 156.49 66.69C156.45 66.49 156.44 66.29 156.46 66.09C156.48 65.55 156.53 65.01 156.61 64.47C156.7 63.79 156.86 62.99 156.96 62.1C157.06 61.13 157.01 60.15 156.8 59.2C156.41 57.47 155.64 55.85 154.55 54.45C153.74 53.36 153.1 52.79 153.14 52.76Z" />
					<path id="Path 1351" class="shp3" d="M148.63 80.53C148.48 80.59 148.32 80.64 148.15 80.67C147.96 80.72 147.77 80.75 147.57 80.78C147.35 80.81 147.09 80.86 146.8 80.87C146.13 80.93 145.45 80.93 144.78 80.87C143.95 80.79 143.14 80.62 142.34 80.38C141.55 80.13 140.79 79.8 140.06 79.41C139.47 79.08 138.91 78.7 138.38 78.27C138.15 78.09 137.97 77.91 137.8 77.75C137.65 77.62 137.51 77.48 137.39 77.33C137.26 77.22 137.16 77.09 137.07 76.94C137.1 76.91 137.58 77.44 138.48 78.14C139.01 78.54 139.57 78.9 140.16 79.22C140.88 79.6 141.63 79.91 142.41 80.16C143.19 80.4 143.99 80.56 144.8 80.66C145.46 80.73 146.13 80.75 146.79 80.72C147.93 80.66 148.62 80.49 148.63 80.53Z" />
					<path id="Path 1352" class="shp3" d="M155.44 78.01C155.55 78.21 155.61 78.43 155.62 78.66C155.69 79.2 155.65 79.75 155.5 80.27C155.35 80.8 155.04 81.28 154.61 81.64C154.29 81.91 154.04 82 154.03 81.97C154.02 81.95 154.22 81.8 154.5 81.53C154.86 81.16 155.12 80.7 155.26 80.2C155.61 79.03 155.36 78.02 155.44 78.01Z" />
					<path id="Path 1353" class="shp3" d="M154.25 79.57C154.44 80.5 154.07 81.46 153.3 82.01C153.25 81.96 153.66 81.53 153.92 80.85C154.17 80.17 154.18 79.57 154.25 79.57Z" />
					<path id="Path 1354" class="shp3" d="M150.3 65.01C150.06 65.4 149.8 65.78 149.51 66.14C149.28 66.54 149.02 66.92 148.73 67.28C148.82 66.81 149.02 66.38 149.32 66.01C149.55 65.6 149.89 65.25 150.3 65.01L150.3 65.01Z" />
					<path id="Path 1355" class="shp3" d="M135.15 54.29C134.81 54.09 134.49 53.87 134.17 53.64C132.6 52.61 130.81 51.94 128.94 51.69C128.55 51.66 128.17 51.61 127.78 51.53C128.17 51.48 128.57 51.48 128.96 51.53C130.88 51.7 132.72 52.38 134.27 53.51C134.6 53.73 134.9 53.99 135.15 54.29L135.15 54.29Z" />
					<path id="Path 1356" class="shp3" d="M158.43 47.27C157.64 47.9 156.9 48.6 156.22 49.36C155.59 50.17 155.03 51.02 154.54 51.92C154.59 51.62 154.69 51.33 154.84 51.06C155.16 50.4 155.56 49.77 156.04 49.21C156.51 48.65 157.06 48.14 157.66 47.72C157.89 47.52 158.15 47.37 158.43 47.27L158.43 47.27Z" />
					<path id="Path 1357" class="shp3" d="M149.32 43.62C149.36 43.68 149.39 43.75 149.42 43.82C149.5 44.02 149.57 44.23 149.62 44.44C149.81 45.23 149.81 46.05 149.62 46.84C149.35 48.02 148.72 49.08 147.82 49.89C146.68 50.85 145.23 51.37 143.75 51.34C142.26 51.35 140.8 50.87 139.61 49.98C138.65 49.26 137.88 48.32 137.35 47.24C136.99 46.52 136.73 45.76 136.59 44.96C136.55 44.75 136.53 44.54 136.51 44.32C136.5 44.24 136.5 44.16 136.51 44.09C136.51 44.09 136.56 44.4 136.69 44.95C136.86 45.72 137.13 46.46 137.5 47.16C138.04 48.2 138.8 49.11 139.74 49.82C140.89 50.67 142.29 51.13 143.72 51.14C145.16 51.17 146.56 50.68 147.66 49.76C148.53 48.98 149.15 47.96 149.43 46.83C149.63 46.07 149.65 45.27 149.51 44.5C149.43 43.91 149.29 43.63 149.32 43.62Z" />
					<g id="Group 119" style="opacity: 0.302">
						<path id="Path 1358" class="shp5" d="M150.87 65.79C150.87 65.57 150.83 65.31 150.64 65.2C150.51 65.13 150.36 65.13 150.24 65.2C150.12 65.26 150.01 65.35 149.92 65.46C149.4 66 148.99 66.65 148.73 67.35L150.9 67.16C150.89 66.72 150.88 66.25 150.87 65.79Z" />
					</g>
					<g id="Group 120" style="opacity: 0.302">
						<path id="Path 1359" class="shp5" d="M158.07 61.23C157.85 59.99 157.31 58.82 156.49 57.86C157.43 60.93 157.12 62.66 156.59 64.75L156.71 64.46C157.31 63.24 158.23 62.47 158.07 61.23Z" />
					</g>
					<path id="Path 1360" class="shp8" d="M153.74 164.12L152.41 183.97L143.78 183.87L142.42 163.23L153.74 164.12Z" />
					<path id="Path 1361" class="shp4" d="M152.66 181.36L152.66 181.94C152.66 181.94 162.39 185.85 162.49 187.69L143.15 187.58L143.45 181.15C146.33 182.5 149.35 182.67 152.66 181.36Z" />
					<path id="Path 1362" class="shp9" d="M145.41 183.22C145.03 183.33 144.8 183.71 144.86 184.1C144.96 184.49 145.35 184.74 145.75 184.65C146.16 184.53 146.4 184.12 146.32 183.7C146.18 183.31 145.74 183.1 145.34 183.23" />
					<path id="Path 1363" class="shp3" d="M143.15 187.59L143.22 186.04L161.74 186.71C161.74 186.71 162.6 187.09 162.5 187.7L143.15 187.59Z" />
					<path id="Path 1364" class="shp3" d="M152.73 181.99C152.73 182.08 152.25 182.12 151.78 182.43C151.32 182.74 151.07 183.13 150.98 183.09C150.9 183.06 151.04 182.51 151.61 182.15C152.18 181.8 152.75 181.89 152.73 181.99Z" />
					<path id="Path 1365" class="shp3" d="M154.75 182.84C154.77 182.93 154.36 183.09 154.04 183.49C153.71 183.88 153.62 184.31 153.52 184.3C153.43 184.3 153.37 183.76 153.79 183.28C154.2 182.8 154.75 182.77 154.75 182.84Z" />
					<path id="Path 1366" class="shp3" d="M155.89 185.27C155.8 185.27 155.67 184.83 155.92 184.31C156.17 183.78 156.6 183.59 156.64 183.66C156.68 183.74 156.41 184.02 156.2 184.45C155.99 184.88 155.98 185.27 155.89 185.27Z" />
					<path id="Path 1367" class="shp3" d="M152.16 18.93C152.66 17.69 152.05 16.19 150.98 15.39C149.85 14.65 148.46 14.38 147.13 14.64C145.82 14.92 144.55 15.37 143.35 15.97C142.22 14.83 140.53 14.42 139 14.92C137.47 15.42 136.35 16.74 136.11 18.34C135.14 18.09 134.1 18.4 133.43 19.15C132.76 19.9 132.55 20.95 132.89 21.9L138.88 24L145.41 35.51C147.41 37.21 150.36 37.17 152.31 35.41C154.26 33.65 154.6 30.72 153.1 28.56C153.47 28.24 153.78 27.85 154.02 27.43C155.08 26.8 155.84 25.78 156.14 24.59C156.72 22.03 154.73 19.23 152.16 18.93Z" />
					<path id="Path 1368" class="shp8" d="M148.2 42.9C147.83 41.03 147.57 39.75 147.57 39.76C147.58 39.77 151.12 38.39 150.86 33.46C150.74 31.01 149.8 27.14 148.93 24.01C148.15 21.19 145.52 18.07 142.74 18.97L134.3 23.09C133.45 23.36 133.3 24.16 133.5 25.02L133.5 25.47L136.78 39.04L138.17 45.1C138.78 47.68 141.26 49.37 143.89 48.99L143.89 48.99C145.29 48.79 146.54 48.03 147.36 46.88C148.17 45.72 148.48 44.29 148.2 42.9Z" />
					<path id="Path 1369" class="shp3" d="M148.9 27.29C148.98 27.61 148.78 27.94 148.46 28.03C148.3 28.07 148.13 28.05 147.99 27.97C147.85 27.88 147.75 27.75 147.71 27.59C147.64 27.26 147.83 26.94 148.15 26.85C148.31 26.8 148.48 26.82 148.62 26.91C148.76 26.99 148.87 27.13 148.9 27.29L148.9 27.29Z" />
					<path id="Path 1370" class="shp3" d="M148.52 26.34C148.46 26.44 147.92 26.2 147.27 26.34C146.61 26.49 146.19 26.91 146.11 26.85C146.02 26.78 146.11 26.66 146.29 26.46C146.53 26.21 146.85 26.03 147.19 25.96C147.54 25.88 147.89 25.92 148.21 26.07C148.46 26.17 148.54 26.3 148.52 26.34Z" />
					<path id="Path 1371" class="shp3" d="M142.48 28.74C142.55 29.06 142.35 29.39 142.03 29.48C141.88 29.52 141.71 29.5 141.57 29.42C141.43 29.35 141.33 29.22 141.29 29.06C141.21 28.73 141.41 28.41 141.73 28.32C141.88 28.27 142.05 28.29 142.19 28.37C142.33 28.45 142.43 28.58 142.48 28.74L142.48 28.74Z" />
					<path id="Path 1372" class="shp3" d="M142.15 27.91C142.1 28 141.56 27.76 140.9 27.91C140.24 28.06 139.83 28.47 139.74 28.41C139.65 28.35 139.74 28.22 139.92 28.02C140.17 27.77 140.48 27.59 140.83 27.52C141.17 27.45 141.53 27.48 141.85 27.63C142.08 27.73 142.18 27.85 142.15 27.91Z" />
					<path id="Path 1373" class="shp3" d="M145.49 32.07C145.81 31.89 146.16 31.75 146.51 31.65C146.68 31.6 146.83 31.53 146.84 31.41C146.81 31.24 146.74 31.07 146.62 30.94L145.85 29.76C144.78 28.08 143.97 26.69 144.03 26.66C144.1 26.63 145.03 27.95 146.1 29.62L146.84 30.81C146.99 30.99 147.07 31.22 147.07 31.45C147.04 31.58 146.96 31.69 146.84 31.75C146.76 31.8 146.67 31.83 146.57 31.85C146.22 31.97 145.86 32.05 145.49 32.07Z" />
					<path id="Path 1374" class="shp10" d="M147.57 39.76C145.34 40.27 143 40.14 140.83 39.4C140.83 39.4 143.15 42.42 147.83 40.98L147.57 39.76Z" />
					<path id="Path 1375" class="shp3" d="M142.26 26.97C142.22 27.16 141.54 27.15 140.77 27.34C140 27.53 139.39 27.82 139.27 27.67C139.21 27.6 139.3 27.41 139.54 27.23C139.85 26.97 140.22 26.78 140.62 26.69C141.01 26.6 141.42 26.6 141.82 26.69C142.13 26.75 142.29 26.88 142.26 26.97Z" />
					<path id="Path 1376" class="shp3" d="M148.27 24.25C148.16 24.43 147.59 24.39 146.94 24.51C146.28 24.64 145.76 24.86 145.61 24.74C145.54 24.67 145.61 24.5 145.8 24.29C146.09 24.05 146.45 23.89 146.82 23.82C147.19 23.75 147.58 23.78 147.93 23.9C148.2 24.03 148.31 24.17 148.27 24.25Z" />
					<path id="Path 1377" class="shp3" d="M136.38 19.92C136.58 20.89 137.2 21.72 138.07 22.19C138.95 22.66 139.98 22.71 140.9 22.34C141.6 22.06 142.33 21.53 143.03 21.78C143.74 22.04 144.03 23.05 144.71 23.43C145.71 23.98 146.92 23.02 148.04 23.12C148.92 23.19 149.59 23.87 150.28 24.44C150.96 25.02 151.91 25.45 152.68 25.04C152.51 24.3 152.24 23.58 151.9 22.9C151.55 22.22 150.98 21.68 150.28 21.37C149.89 21.22 149.47 21.16 149.1 20.97C148.3 20.57 147.94 19.65 147.36 18.95C146.59 18.06 145.43 17.6 144.26 17.71C143.3 17.81 142.4 18.29 141.43 18.25C140.72 18.22 140.04 17.9 139.32 17.92C137.94 17.92 136.9 19.15 136.13 20.31" />
					<path id="Path 1378" class="shp3" d="M141.05 20.93C140.41 20.89 139.11 20.75 138.68 20.3C137.79 19.31 136.44 18.86 135.14 19.13C133.83 19.52 132.93 20.72 132.92 22.08C131.35 22.47 130.11 23.68 129.69 25.25C129.27 26.89 129.69 28.63 130.8 29.91C131.07 30.24 131.31 30.59 131.53 30.96C131.22 31.33 130.96 31.73 130.74 32.15C129.72 34.39 132.47 35.25 132.47 35.25C132.47 36.75 133.87 36.74 134.76 36.74C135.65 36.74 136.14 39.11 136.83 39.02L136.13 31.69C136.23 31.73 136.34 31.75 136.45 31.75C138.13 31.78 137.69 28.6 137.15 27.76C137.65 27.14 138.07 26.46 138.41 25.74C138.71 24.63 138.73 23.46 138.47 22.35C139.03 22.28 141.32 20.95 141.05 20.93Z" />
					<path id="Path 1379" class="shp8" d="M136.35 32.08C136.23 31.6 135.88 31.22 135.42 31.07C134.96 30.91 134.45 31 134.07 31.31C133.63 31.69 133.39 32.33 133.66 33.4C134.38 36.25 137.09 34.94 137.07 34.86C137.05 34.78 136.66 33.25 136.35 32.08Z" />
					<path id="Path 1380" class="shp10" d="M135.93 34C135.93 34 135.89 34.05 135.81 34.11C135.71 34.19 135.58 34.22 135.45 34.21C135.12 34.17 134.74 33.77 134.6 33.25C134.53 33.01 134.52 32.75 134.56 32.5C134.57 32.31 134.67 32.13 134.84 32.03C134.95 31.97 135.09 31.99 135.17 32.09C135.23 32.16 135.22 32.22 135.24 32.23C135.26 32.23 135.29 32.16 135.24 32.05C135.2 31.98 135.15 31.93 135.08 31.9C134.99 31.86 134.89 31.86 134.79 31.9C134.57 32.01 134.41 32.22 134.38 32.47C134.32 32.75 134.33 33.04 134.41 33.31C134.51 33.84 134.92 34.25 135.44 34.36C135.61 34.37 135.77 34.3 135.89 34.17C135.94 34.07 135.94 34 135.93 34Z" />
					<path id="Path 1381" class="shp11" d="M151.63 28.1C151.63 28.1 151.9 27.9 152.26 27.45C152.76 26.82 153.07 26.05 153.14 25.24C153.2 24.69 153.15 24.13 152.98 23.6C152.79 23 152.44 22.45 151.97 22.03C150.86 21.05 149.31 20.74 147.91 21.21C147.77 21.26 147.65 21.32 147.53 21.38C147.4 21.43 147.29 21.51 147.18 21.58L147 21.67L147 21.48C147 21.14 146.87 20.81 146.64 20.55C146.41 20.3 146.12 20.11 145.8 19.98C145.2 19.73 144.54 19.68 143.91 19.84C142.68 20.12 141.65 20.68 140.67 20.79C139.9 20.93 139.11 20.77 138.46 20.35C138.28 20.23 138.13 20.08 138.01 19.91C137.94 19.79 137.91 19.72 137.92 19.72C138.08 19.94 138.27 20.13 138.5 20.28C139.14 20.65 139.9 20.78 140.63 20.64C141.14 20.54 141.64 20.39 142.12 20.19C142.68 19.97 143.26 19.78 143.85 19.63C144.18 19.55 144.51 19.52 144.85 19.53C145.2 19.55 145.55 19.63 145.88 19.77C146.22 19.91 146.52 20.13 146.76 20.41C147.03 20.71 147.17 21.09 147.18 21.49L147 21.39L147.37 21.18C147.51 21.12 147.64 21.05 147.78 21C149.26 20.5 150.9 20.82 152.07 21.86C152.57 22.31 152.93 22.89 153.12 23.53C153.52 24.92 153.21 26.41 152.28 27.52C152.13 27.68 151.97 27.83 151.78 27.96C151.74 28.01 151.69 28.06 151.63 28.1Z" />
					<path id="Path 1382" class="shp11" d="M151.06 18.09C150.77 17.94 150.46 17.83 150.14 17.77C149.77 17.72 149.4 17.76 149.05 17.88C148.6 18.01 148.2 18.3 147.93 18.69L147.82 18.84L147.75 18.67C147.28 17.56 146.25 16.79 145.05 16.66C144.13 16.63 143.22 16.89 142.46 17.42C141.81 17.84 141.12 18.19 140.4 18.48C139.9 18.67 139.37 18.73 138.84 18.66C138.7 18.64 138.56 18.6 138.43 18.55C138.34 18.51 138.29 18.49 138.3 18.48C138.3 18.47 138.5 18.53 138.86 18.57C139.36 18.6 139.87 18.52 140.35 18.33C141.05 18.02 141.72 17.65 142.35 17.23C142.74 16.99 143.16 16.78 143.59 16.62C144.07 16.45 144.57 16.38 145.08 16.43C146.36 16.57 147.46 17.4 147.94 18.6L147.77 18.6C148.07 18.18 148.5 17.88 149 17.74C149.38 17.63 149.77 17.61 150.16 17.68C150.4 17.73 150.64 17.82 150.85 17.95C150.93 17.98 151 18.03 151.06 18.09L151.06 18.09Z" />
					<path id="Path 1383" class="shp4" d="M145.23 33.38C145.02 33.2 144.75 33.12 144.48 33.16C144.16 33.23 143.89 33.43 143.73 33.71L143.73 33.71C143.73 33.71 143.71 33.73 143.7 33.74L143.7 33.74C143.64 33.84 143.61 33.96 143.62 34.08C143.66 34.34 143.83 34.56 144.06 34.68C144.45 34.87 144.91 34.8 145.22 34.51C145.52 34.19 145.53 33.7 145.23 33.38Z" />
					<path id="Path 1384" class="shp3" d="M145.45 34.75C145.41 34.75 145.38 34.62 145.26 34.44C144.96 33.94 144.39 33.68 143.82 33.78C143.6 33.81 143.47 33.88 143.45 33.85C143.44 33.81 143.54 33.71 143.78 33.62C144.09 33.52 144.43 33.54 144.73 33.68C145.04 33.81 145.27 34.06 145.4 34.36C145.49 34.59 145.48 34.75 145.45 34.75Z" />
					<path id="Path 1385" class="shp4" d="M136.42 35.3C136.42 35.3 136.54 35.52 136.38 35.86C136.28 36.06 136.11 36.22 135.91 36.3C135.65 36.4 135.36 36.36 135.12 36.21C134.89 36.07 134.73 35.82 134.7 35.55C134.69 35.33 134.75 35.11 134.88 34.93C135.11 34.64 135.37 34.63 135.37 34.66C135.37 34.69 135.18 34.76 135.02 35.03C134.93 35.18 134.89 35.35 134.92 35.52C134.95 35.73 135.07 35.91 135.25 36.01C135.42 36.13 135.64 36.16 135.84 36.1C136 36.04 136.14 35.94 136.24 35.79C136.41 35.52 136.38 35.3 136.42 35.3Z" />
					<path id="Path 1386" class="shp4" d="M134.92 35.13C134.95 35.13 134.92 35.28 134.72 35.38C134.51 35.46 134.27 35.42 134.1 35.27C133.94 35.12 133.87 34.88 133.94 34.66C133.99 34.54 134.07 34.44 134.18 34.38C134.36 34.27 134.5 34.31 134.49 34.34C134.49 34.36 134.38 34.39 134.27 34.51C134.16 34.64 134.15 34.84 134.23 34.99C134.32 35.15 134.49 35.24 134.66 35.22C134.81 35.19 134.89 35.11 134.92 35.13Z" />
					<path id="Path 1387" class="shp8" d="M139.79 74.44C139.79 74.44 150.75 75.08 157.23 75.13C162.24 75.18 164.48 73.85 165.48 70.62C166.32 67.92 164.52 62.73 164.52 62.73C161.12 62.73 159.03 63.21 156.85 64.24L157.43 66.61L139.76 68.13L139.79 74.44Z" />
					<path id="Path 1388" class="shp10" d="M161.11 69.14C160.64 68.52 160.08 67.97 159.46 67.5C158.79 67.09 158.08 66.78 157.33 66.56C157.56 66.53 157.8 66.55 158.03 66.62C158.59 66.75 159.11 66.99 159.59 67.31C160.06 67.63 160.47 68.04 160.8 68.51C161.04 68.88 161.14 69.13 161.11 69.14Z" />
					<path id="Path 1389" class="shp8" d="M135.78 64.22L135.78 64.22C135.78 64.22 132.39 65.03 129.9 66.7L132.55 73.89C133.44 76.26 136.14 77.44 138.31 76.2C141.64 74.29 142.82 68.73 142.82 68.73L146.48 52.85L140.41 49.05L135.8 64.22" />
					<path id="Path 1390" class="shp8" d="M140.39 49.05L140.63 43.82L139.28 38.51C139.2 38.22 139.16 37.85 139.4 37.67C139.65 37.49 139.99 37.5 140.22 37.7C140.59 38.08 142.36 42.72 142.36 42.72C142.36 42.72 145.05 41.11 145.53 41.03C146 40.95 146.6 42.4 146.64 42.51C146.66 42.84 146.66 43.16 146.64 43.49C146.64 43.49 148.3 43.53 148.45 43.76C148.57 44.22 148.64 44.7 148.64 45.17C148.64 45.17 149.35 45.4 149.46 45.93C149.57 46.46 149.8 47.34 149.46 47.53C149.12 47.73 148.42 48.11 148.42 48.11C148.42 48.11 148.15 50.82 148.07 51.06C148 51.31 146.44 52.83 146.44 52.83L140.39 49.05Z" />
					<path id="Path 1391" class="shp10" d="M134.74 76.3C134.74 76.3 134.9 76.4 135.25 76.51C135.75 76.67 136.29 76.71 136.81 76.63C137.65 76.51 138.44 76.15 139.08 75.59C139.92 74.83 140.63 73.93 141.18 72.93C141.51 72.35 141.78 71.74 142 71.11C142.23 70.41 142.42 69.7 142.57 68.99C142.92 67.49 143.29 65.89 143.69 64.18C144.49 60.77 145.38 56.95 146.35 52.84L146.35 52.81L146.37 52.81C146.68 52.51 146.98 52.2 147.29 51.88C147.44 51.72 147.59 51.56 147.73 51.4C147.8 51.32 147.88 51.23 147.93 51.15C147.98 51.06 148 50.97 148.01 50.88C148.13 49.99 148.22 49.08 148.32 48.15L148.32 48.09L148.37 48.07L149.22 47.59C149.28 47.55 149.38 47.51 149.42 47.47C149.46 47.44 149.49 47.38 149.5 47.33C149.52 47.18 149.52 47.03 149.5 46.89C149.45 46.56 149.39 46.24 149.3 45.93C149.15 45.65 148.89 45.44 148.59 45.35L148.52 45.33L148.52 45.25C148.52 45 148.49 44.73 148.46 44.47C148.45 44.34 148.43 44.21 148.4 44.08C148.39 44.02 148.37 43.97 148.35 43.92C148.35 43.88 148.35 43.92 148.32 43.89C148.3 43.88 148.27 43.87 148.25 43.86C147.72 43.74 147.17 43.68 146.63 43.68L146.51 43.68L146.51 43.56C146.51 43.29 146.51 42.98 146.51 42.68C146.49 42.57 146.46 42.47 146.41 42.38C146.36 42.27 146.31 42.17 146.26 42.07C146.15 41.86 146.03 41.66 145.89 41.48C145.83 41.4 145.75 41.32 145.67 41.26C145.6 41.2 145.51 41.19 145.43 41.23C145.22 41.32 145.01 41.41 144.81 41.52C143.99 41.96 143.18 42.41 142.39 42.88L142.28 42.95L142.23 42.83C141.81 41.78 141.4 40.75 140.99 39.73C140.78 39.22 140.59 38.71 140.38 38.21C140.32 37.99 140.13 37.81 139.9 37.77C139.68 37.7 139.44 37.79 139.32 37.98C139.26 38.08 139.24 38.19 139.25 38.3C139.25 38.4 139.32 38.55 139.34 38.67C139.41 38.92 139.48 39.17 139.55 39.43C139.68 39.94 139.81 40.44 139.94 40.93C140.2 41.93 140.45 42.9 140.71 43.85L140.71 43.88C140.62 45.7 140.53 47.44 140.45 49.11L140.45 49.1L136.42 62.22L135.28 65.87C135.15 66.28 135.05 66.6 134.98 66.83C134.91 67.06 134.86 67.15 134.86 67.15C134.86 67.15 134.88 67.04 134.95 66.82L135.23 65.85C135.48 65 135.85 63.76 136.31 62.19C137.27 59.02 138.63 54.49 140.27 49.04L140.27 49.06C140.35 47.4 140.43 45.66 140.51 43.84L140.51 43.87C140.25 42.92 139.99 41.95 139.73 40.95L139.33 39.45C139.27 39.2 139.2 38.94 139.13 38.69C139.09 38.56 139.06 38.42 139.04 38.29C139.02 38.13 139.05 37.98 139.13 37.84C139.21 37.7 139.34 37.6 139.49 37.54C139.79 37.45 140.12 37.53 140.35 37.74C140.46 37.84 140.54 37.97 140.59 38.12L141.2 39.64C141.61 40.65 142.02 41.69 142.44 42.73L142.28 42.68C143.07 42.21 143.87 41.74 144.71 41.3C144.92 41.19 145.14 41.09 145.36 41C145.43 40.97 145.51 40.96 145.58 40.97C145.66 40.98 145.73 41.01 145.8 41.05C145.9 41.13 146 41.22 146.07 41.33C146.22 41.52 146.35 41.73 146.46 41.95C146.52 42.06 146.57 42.16 146.62 42.27C146.68 42.39 146.72 42.52 146.74 42.65C146.74 42.96 146.74 43.26 146.74 43.53L146.63 43.42C147.2 43.42 147.77 43.48 148.32 43.61C148.36 43.62 148.4 43.64 148.43 43.66C148.48 43.69 148.52 43.73 148.55 43.77C148.58 43.85 148.61 43.92 148.62 44C148.65 44.14 148.67 44.27 148.69 44.41C148.71 44.68 148.73 44.95 148.74 45.21L148.66 45.11C149.03 45.21 149.34 45.47 149.51 45.81C149.61 46.14 149.68 46.49 149.72 46.83C149.75 47.01 149.75 47.19 149.72 47.37C149.7 47.48 149.65 47.57 149.56 47.64C149.49 47.69 149.41 47.74 149.34 47.78L148.5 48.21L148.55 48.13C148.45 49.05 148.36 49.96 148.23 50.86L148.21 51.03C148.2 51.1 148.17 51.17 148.12 51.22C148.06 51.32 147.99 51.41 147.91 51.5C147.76 51.67 147.61 51.83 147.46 51.99C147.16 52.31 146.85 52.61 146.54 52.91L146.57 52.86C145.6 56.97 144.7 60.78 143.89 64.2C143.49 65.9 143.1 67.51 142.75 68.99C142.59 69.72 142.4 70.43 142.16 71.13C141.93 71.77 141.65 72.38 141.32 72.97C140.76 73.98 140.03 74.89 139.16 75.66C138.51 76.22 137.7 76.58 136.84 76.69C136.31 76.76 135.76 76.71 135.25 76.53C135.12 76.49 135 76.43 134.88 76.36L134.74 76.3Z" />
					<path id="Path 1392" class="shp10" d="M146.65 43.5C146.65 43.53 146.49 43.55 146.26 43.56C145.96 43.56 145.67 43.6 145.38 43.66C145.09 43.73 144.84 43.87 144.62 44.07C144.46 44.22 144.39 44.34 144.36 44.33C144.32 44.32 144.36 44.16 144.5 43.96C144.71 43.7 145 43.52 145.32 43.44C145.63 43.37 145.95 43.35 146.26 43.4C146.5 43.43 146.65 43.47 146.65 43.5Z" />
					<path id="Path 1393" class="shp10" d="M145.36 43.55C145.3 43.53 145.3 43.39 145.36 43.24C145.42 43.1 145.51 42.99 145.57 43.02C145.63 43.04 145.64 43.18 145.57 43.32C145.5 43.47 145.41 43.57 145.36 43.55Z" />
					<path id="Path 1394" class="shp10" d="M148.72 45.15C148.29 45.29 147.84 45.35 147.39 45.34C147.1 45.33 146.83 45.46 146.65 45.69C146.54 45.87 146.58 46.02 146.54 46.03C146.51 46.04 146.4 45.88 146.51 45.62C146.57 45.47 146.68 45.34 146.83 45.27C146.99 45.18 147.17 45.12 147.36 45.11C147.81 45.04 148.27 45.05 148.72 45.15Z" />
					<path id="Path 1395" class="shp10" d="M148.42 46.75C148.49 46.75 148.52 47.08 148.5 47.48C148.49 47.88 148.42 48.2 148.36 48.2C148.3 48.2 148.26 47.87 148.27 47.47C148.29 47.06 148.36 46.74 148.42 46.75Z" />
					<path id="Path 1396" class="shp9" d="M150.26 58.67L150.66 57.31C150.69 57.19 150.79 57.09 150.92 57.06C151.05 57.02 151.18 57.06 151.28 57.15L151.79 57.68L152.11 56.4C152.15 56.25 152.28 56.14 152.43 56.12C152.59 56.11 152.74 56.19 152.81 56.33L153.53 57.85L150.26 58.67Z" />
					<path id="Path 1397" class="shp9" d="M153.54 58.42C153.04 58.66 152.52 58.83 151.97 58.93C151.45 59.1 150.91 59.2 150.35 59.21C151.37 58.8 152.44 58.54 153.54 58.42Z" />
					<path id="Path 1398" class="shp9" d="M127.21 50.87C127.21 50.87 127.05 51.04 126.82 51.4C126.51 51.91 126.31 52.47 126.22 53.06C126.1 53.94 126.07 54.84 126.14 55.72C126.19 56.73 126.27 57.82 126.39 58.97C126.6 60.94 126.92 62.89 127.33 64.83C127.48 65.57 127.63 66.15 127.72 66.6C127.77 66.78 127.81 66.94 127.84 67.07C127.87 67.2 127.87 67.24 127.87 67.24C127.87 67.24 127.85 67.18 127.82 67.08C127.79 66.97 127.74 66.79 127.69 66.6C127.58 66.19 127.43 65.6 127.25 64.86C126.82 62.92 126.5 60.97 126.29 59C126.16 57.85 126.09 56.75 126.05 55.74C125.98 54.86 126.01 53.97 126.14 53.09C126.24 52.49 126.45 51.92 126.78 51.4C126.9 51.21 127.05 51.03 127.21 50.87L127.21 50.87Z" />
					<path id="Path 1399" class="shp9" d="M136.53 44.84L136.43 44.89L136.14 45.04C135.89 45.15 135.52 45.33 135.08 45.58C133.94 46.21 132.83 46.91 131.76 47.66C130.49 48.54 129.37 49.35 128.55 49.93L127.58 50.62L127.31 50.8C127.28 50.82 127.25 50.84 127.21 50.86C127.24 50.83 127.27 50.81 127.3 50.79L127.56 50.59L128.51 49.88C129.32 49.28 130.44 48.45 131.7 47.58C132.78 46.83 133.89 46.14 135.05 45.52C135.49 45.28 135.86 45.12 136.12 45L136.42 44.88C136.51 44.85 136.51 44.84 136.53 44.84Z" />
					<path id="Path 1400" class="shp9" d="M157.64 47.72C157.61 47.71 157.59 47.69 157.57 47.66L157.37 47.49C157.12 47.28 156.86 47.09 156.59 46.91C155.69 46.34 154.74 45.86 153.75 45.47C152.75 45.08 151.74 44.74 150.71 44.46C150.31 44.35 150 44.27 149.77 44.22L149.52 44.15C149.49 44.15 149.46 44.14 149.43 44.12L149.52 44.12L149.78 44.17C150 44.22 150.33 44.29 150.73 44.39C151.76 44.65 152.79 44.98 153.78 45.38C154.78 45.76 155.74 46.25 156.63 46.85C157 47.1 157.34 47.39 157.64 47.72Z" />
					<path id="Path 1401" class="shp9" d="M136.66 81.51C136.6 81.5 136.54 81.48 136.48 81.45C136.33 81.38 136.18 81.3 136.04 81.21C135.56 80.92 135.21 80.45 135.07 79.91C134.95 79.37 135.01 78.8 135.25 78.29C135.32 78.13 135.4 77.98 135.5 77.85C135.58 77.75 135.62 77.71 135.63 77.71C135.51 77.9 135.4 78.1 135.31 78.3C135.1 78.8 135.05 79.35 135.17 79.87C135.29 80.39 135.61 80.85 136.05 81.15C136.42 81.41 136.66 81.49 136.66 81.51Z" />
					<path id="Path 1402" class="shp9" d="M135.25 76.71C135.34 76.89 135.41 77.08 135.46 77.27C135.52 77.46 135.57 77.65 135.58 77.85C135.48 77.68 135.41 77.49 135.37 77.3C135.29 77.11 135.25 76.91 135.25 76.71Z" />
					<path id="Path 1403" class="shp3" d="M141.23 175.96L154.73 175.89L154.49 129.22L154.36 81.73L136.07 81.5L132.78 87.7C131.43 90.19 130.57 92.91 130.25 95.73C130.03 97.88 131.64 104.87 132.2 106.64L137.23 122.6L141.23 175.96Z" />
					<path id="Path 1404" class="shp3" d="M158.32 81.79L173.16 122.23C174.94 127.51 174.27 133.31 171.33 138.04L154.1 171.68L144.42 159.56L158.83 129.46L146.13 108.85L148.27 81.85L154.25 81.76L158.32 81.79Z" />
					<path id="Path 1405" class="shp11" d="M153.13 95.34C153.13 95.34 153.13 95.41 153.13 95.55C153.13 95.69 153.15 95.9 153.17 96.16C153.2 96.7 153.24 97.49 153.29 98.5C153.4 100.55 153.54 103.49 153.74 107.13C153.94 110.76 154.1 115.1 154.33 119.92C154.43 122.33 154.55 124.86 154.66 127.48C154.75 128.8 154.71 130.13 154.72 131.46C154.74 132.79 154.72 134.19 154.72 135.58C154.72 146.7 154.76 156.77 154.77 164.07C154.77 167.71 154.77 170.65 154.77 172.7C154.77 173.72 154.77 174.51 154.77 175.05C154.77 175.31 154.77 175.5 154.77 175.66C154.77 175.83 154.77 175.87 154.77 175.87C154.77 175.87 154.77 175.8 154.77 175.66L154.77 175.05C154.77 174.51 154.77 173.73 154.75 172.7C154.75 170.65 154.71 167.71 154.68 164.07C154.65 156.77 154.61 146.7 154.57 135.58C154.57 134.19 154.57 132.82 154.57 131.46C154.57 130.11 154.6 128.77 154.51 127.48C154.4 124.86 154.29 122.34 154.19 119.93C153.98 115.11 153.8 110.78 153.65 107.13C153.5 103.48 153.39 100.55 153.3 98.51C153.27 97.5 153.24 96.71 153.22 96.16C153.22 95.9 153.22 95.72 153.22 95.55C153.22 95.38 153.13 95.34 153.13 95.34Z" />
					<path id="Path 1406" class="shp11" d="M152.79 82.59C152.84 82.73 152.87 82.88 152.88 83.03C152.93 83.31 152.98 83.73 153.05 84.24C153.16 85.26 153.28 86.68 153.36 88.25C153.43 89.83 153.43 91.25 153.41 92.28C153.41 92.8 153.38 93.22 153.36 93.5C153.36 93.65 153.34 93.8 153.3 93.95C153.25 93.39 153.23 92.84 153.25 92.28C153.25 91.25 153.2 89.83 153.13 88.26C153.05 86.69 152.96 85.28 152.88 84.28C152.82 83.72 152.79 83.15 152.79 82.59L152.79 82.59Z" />
					<path id="Path 1407" class="shp11" d="M149.81 83.5C149.84 83.53 149.58 83.65 149.51 84C149.47 84.2 149.54 84.41 149.69 84.54C149.87 84.71 150.12 84.76 150.35 84.66C150.57 84.55 150.7 84.33 150.7 84.08C150.69 83.88 150.57 83.7 150.4 83.6C150.22 83.51 150.02 83.48 149.82 83.5C149.82 83.5 149.86 83.44 149.98 83.41C150.14 83.37 150.32 83.38 150.47 83.46C150.73 83.56 150.9 83.8 150.92 84.07C150.95 84.41 150.77 84.73 150.46 84.87C150.15 85.02 149.79 84.95 149.55 84.7C149.36 84.51 149.29 84.23 149.37 83.97C149.42 83.8 149.52 83.66 149.66 83.56C149.74 83.5 149.81 83.49 149.81 83.5Z" />
					<path id="Path 1408" class="shp11" d="M142.73 82.7C142.8 82.84 142.84 82.99 142.85 83.14C142.92 83.54 142.94 83.94 142.89 84.35C142.83 84.94 142.66 85.52 142.38 86.06C141.71 87.41 140.42 88.34 138.92 88.54C138.33 88.63 137.73 88.61 137.15 88.48C136.76 88.39 136.38 88.25 136.03 88.05C135.89 87.99 135.77 87.91 135.66 87.81C136.15 88.03 136.66 88.2 137.19 88.32C138.46 88.58 139.78 88.3 140.84 87.54C141.9 86.79 142.59 85.62 142.75 84.33C142.8 83.79 142.8 83.24 142.73 82.7L142.73 82.7Z" />
					<path id="Path 1409" class="shp11" d="M160.1 86.58C159.81 86.61 159.52 86.57 159.25 86.47C158.58 86.26 157.98 85.88 157.51 85.36C157.03 84.84 156.71 84.21 156.56 83.52C156.5 83.24 156.5 82.94 156.56 82.66C156.6 82.66 156.61 82.99 156.74 83.48C157.11 84.78 158.06 85.83 159.32 86.32C159.78 86.5 160.11 86.53 160.1 86.58Z" />
					<path id="Path 1410" class="shp11" d="M165.37 130.18C165.15 130.43 164.89 130.64 164.59 130.8C164.28 131 163.94 131.15 163.58 131.24C163.14 131.36 162.67 131.35 162.23 131.21C161.45 130.92 160.79 130.39 160.33 129.7C160.12 129.44 159.95 129.16 159.81 128.85C160.05 129.08 160.27 129.33 160.46 129.6C160.93 130.22 161.56 130.7 162.29 130.99C163.04 131.19 163.84 131.07 164.51 130.66C164.79 130.48 165.07 130.32 165.37 130.18Z" />
					<path id="Path 1411" class="shp11" d="M161.99 132.76C161.47 132.21 161 131.62 160.6 130.99C160.13 130.39 159.73 129.76 159.38 129.09C159.91 129.63 160.38 130.22 160.78 130.86C161.25 131.45 161.66 132.08 161.99 132.76Z" />
					<path id="Path 1412" class="shp12" d="M139.31 96.9C139.25 96.93 139.09 96.67 138.96 96.33C138.82 95.99 138.76 95.7 138.82 95.68C138.88 95.65 139.04 95.91 139.17 96.25C139.3 96.59 139.37 96.9 139.31 96.9Z" />
					<path id="Path 1413" class="shp12" d="M147.88 98.13C147.81 98.13 147.77 97.92 147.77 97.65C147.77 97.38 147.81 97.16 147.88 97.16C147.95 97.16 148 97.38 148 97.65C148 97.92 147.94 98.13 147.88 98.13Z" />
					<path id="Path 1414" class="shp12" d="M144.36 102.79C144.3 102.79 144.22 102.52 144.2 102.18C144.18 101.84 144.2 101.57 144.27 101.56C144.34 101.56 144.41 101.83 144.43 102.17C144.45 102.51 144.42 102.79 144.36 102.79Z" />
					<path id="Path 1415" class="shp12" d="M137.92 106.2C137.87 106.24 137.69 106.07 137.45 105.91C137.21 105.74 137 105.61 137 105.55C137 105.49 137.3 105.52 137.57 105.72C137.84 105.91 137.97 106.2 137.92 106.2Z" />
					<path id="Path 1416" class="shp12" d="M149.27 110.54C149.21 110.51 149.27 110.31 149.42 110.1C149.57 109.88 149.7 109.76 149.76 109.79C149.81 109.83 149.76 110.02 149.61 110.24C149.46 110.45 149.32 110.58 149.27 110.54Z" />
					<path id="Path 1417" class="shp12" d="M142.26 111.77C142.2 111.77 142.15 111.4 142.15 110.95C142.15 110.51 142.2 110.13 142.26 110.13C142.33 110.13 142.38 110.5 142.38 110.95C142.38 111.4 142.31 111.77 142.26 111.77Z" />
					<path id="Path 1418" class="shp12" d="M139.97 116.73C139.94 116.78 139.7 116.68 139.46 116.5C139.21 116.32 139.01 116.13 139.07 116.08C139.13 116.02 139.34 116.13 139.59 116.31C139.84 116.49 140.01 116.68 139.97 116.73Z" />
					<path id="Path 1419" class="shp12" d="M147.06 118.46C147.09 118.52 146.95 118.64 146.74 118.73C146.54 118.82 146.35 118.84 146.33 118.79C146.3 118.73 146.45 118.61 146.65 118.52C146.85 118.42 147.04 118.4 147.06 118.46Z" />
					<path id="Path 1420" class="shp12" d="M142.26 126.56C142.21 126.59 141.98 126.25 141.75 125.79C141.53 125.34 141.39 124.95 141.45 124.91C141.51 124.86 141.74 125.22 141.96 125.67C142.18 126.13 142.3 126.51 142.26 126.56Z" />
					<path id="Path 1421" class="shp12" d="M150.08 125.81C150.03 125.78 150.13 125.48 150.31 125.14C150.48 124.8 150.68 124.55 150.75 124.58C150.82 124.61 150.7 124.91 150.52 125.25C150.34 125.59 150.14 125.84 150.08 125.81Z" />
					<path id="Path 1422" class="shp12" d="M146.65 132.66C146.59 132.66 146.6 132.3 146.53 131.89C146.46 131.47 146.35 131.14 146.41 131.11C146.47 131.08 146.69 131.39 146.76 131.85C146.83 132.31 146.72 132.68 146.65 132.66Z" />
					<path id="Path 1423" class="shp12" d="M142.98 136.58C142.94 136.62 142.71 136.46 142.49 136.21C142.26 135.96 142.12 135.73 142.17 135.68C142.21 135.64 142.43 135.81 142.66 136.05C142.88 136.3 143.03 136.54 142.98 136.58Z" />
					<path id="Path 1424" class="shp12" d="M151.9 138.07C151.85 138.02 152.01 137.78 152.26 137.53C152.51 137.28 152.74 137.12 152.79 137.16C152.84 137.2 152.67 137.45 152.43 137.7C152.18 137.94 151.94 138.11 151.9 138.07Z" />
					<path id="Path 1425" class="shp12" d="M146.77 143.93C146.71 143.93 146.71 143.58 146.77 143.18C146.83 142.77 146.93 142.45 147 142.46C147.06 142.47 147.06 142.8 147 143.21C146.93 143.62 146.83 143.94 146.77 143.93Z" />
					<path id="Path 1426" class="shp12" d="M143.32 146.78C143.26 146.81 143.07 146.58 142.88 146.27C142.69 145.95 142.59 145.67 142.64 145.64C142.7 145.61 142.89 145.84 143.09 146.15C143.28 146.46 143.37 146.74 143.32 146.78Z" />
					<path id="Path 1427" class="shp12" d="M151.63 150.37C151.67 150.42 151.44 150.65 151.12 150.87C150.81 151.1 150.53 151.24 150.49 151.19C150.45 151.13 150.68 150.91 150.99 150.68C151.31 150.46 151.59 150.32 151.63 150.37Z" />
					<path id="Path 1428" class="shp12" d="M144.71 155.03C144.64 155.01 144.71 154.65 144.76 154.21C144.82 153.77 144.79 153.41 144.85 153.4C144.92 153.39 145.03 153.76 144.99 154.23C144.95 154.71 144.76 155.06 144.71 155.03Z" />
					<path id="Path 1429" class="shp12" d="M147.47 161.72C147.42 161.76 147.23 161.61 147.05 161.39C146.87 161.16 146.77 160.94 146.82 160.9C146.87 160.86 147.05 161.01 147.23 161.24C147.42 161.47 147.52 161.68 147.47 161.72Z" />
					<path id="Path 1430" class="shp12" d="M144.45 166.21C144.4 166.25 144.15 165.98 143.91 165.62C143.66 165.26 143.5 164.94 143.55 164.9C143.6 164.87 143.85 165.13 144.1 165.49C144.34 165.86 144.5 166.17 144.45 166.21Z" />
					<path id="Path 1431" class="shp12" d="M152.78 160.58C152.72 160.55 152.72 160.39 152.78 160.21C152.83 160.04 152.95 159.9 153.01 159.92C153.07 159.95 153.06 160.11 153.01 160.29C152.96 160.47 152.84 160.6 152.78 160.58Z" />
					<path id="Path 1432" class="shp12" d="M149.1 171.27C149.04 171.23 149.16 170.92 149.24 170.53C149.33 170.13 149.36 169.8 149.43 169.8C149.5 169.79 149.56 170.15 149.47 170.57C149.38 171 149.16 171.3 149.1 171.27Z" />
					<path id="Path 1433" class="shp12" d="M151.49 102.86C151.43 102.89 151.29 102.71 151.18 102.46C151.06 102.21 151.01 101.99 151.07 101.97C151.13 101.94 151.27 102.12 151.39 102.37C151.5 102.61 151.56 102.83 151.49 102.86Z" />
					<path id="Path 1434" class="shp12" d="M145.36 89.08C145.4 89.13 145.09 89.38 144.76 89.73C144.42 90.09 144.2 90.41 144.14 90.38C144.08 90.35 144.23 89.94 144.58 89.58C144.93 89.21 145.32 89.02 145.36 89.08Z" />
					<path id="Path 1435" class="shp12" d="M150.82 88.94C150.75 88.94 150.65 88.68 150.5 88.38C150.34 88.08 150.2 87.83 150.25 87.79C150.3 87.74 150.54 87.94 150.69 88.28C150.85 88.61 150.88 88.9 150.82 88.94Z" />
					<path id="Path 1436" class="shp12" d="M133.78 93.41C133.72 93.38 133.78 93.09 133.92 92.76C134.05 92.42 134.2 92.16 134.27 92.18C134.33 92.21 134.27 92.5 134.13 92.84C133.99 93.18 133.85 93.43 133.78 93.41Z" />
					<path id="Path 1437" class="shp12" d="M134.33 100.09C134.29 100.14 134.03 100 133.76 99.78C133.49 99.55 133.32 99.33 133.35 99.28C133.38 99.23 133.65 99.37 133.92 99.6C134.19 99.82 134.37 100.05 134.33 100.09Z" />
					<path id="Path 1438" class="shp12" d="M145.51 83.77C145.45 83.77 145.33 83.63 145.24 83.4C145.15 83.18 145.13 82.96 145.18 82.96C145.24 82.96 145.37 83.1 145.45 83.33C145.54 83.55 145.57 83.75 145.51 83.77Z" />
					<path id="Path 1439" class="shp12" d="M156.22 87.04C156.16 87.04 156.16 86.76 156.22 86.44C156.28 86.13 156.39 85.88 156.45 85.89C156.52 85.91 156.51 86.18 156.45 86.49C156.4 86.81 156.28 87.05 156.22 87.04Z" />
					<path id="Path 1440" class="shp12" d="M158.73 92.1C158.68 92.07 158.76 91.74 158.92 91.36C159.07 90.97 159.25 90.68 159.3 90.71C159.36 90.73 159.3 91.06 159.13 91.45C158.95 91.83 158.8 92.12 158.73 92.1Z" />
					<path id="Path 1441" class="shp12" d="M156.94 96.18C156.88 96.2 156.67 95.9 156.47 95.5C156.26 95.09 156.15 94.73 156.21 94.71C156.26 94.68 156.47 94.99 156.68 95.39C156.88 95.79 157 96.15 156.94 96.18Z" />
					<path id="Path 1442" class="shp12" d="M160.77 100.26C160.72 100.24 160.77 99.98 160.87 99.69C160.97 99.39 161.12 99.17 161.19 99.2C161.25 99.22 161.19 99.47 161.09 99.77C160.99 100.06 160.85 100.28 160.77 100.26Z" />
					<path id="Path 1443" class="shp12" d="M157.35 104.26C157.3 104.29 157.16 104.17 157.05 103.99C156.94 103.82 156.88 103.64 156.94 103.6C157 103.57 157.13 103.69 157.24 103.87C157.36 104.05 157.4 104.22 157.35 104.26Z" />
					<path id="Path 1444" class="shp12" d="M158.08 112.51C158.03 112.55 157.76 112.33 157.46 112.01C157.17 111.69 156.97 111.4 157.02 111.36C157.07 111.32 157.34 111.54 157.64 111.86C157.93 112.17 158.13 112.46 158.08 112.51Z" />
					<path id="Path 1445" class="shp12" d="M162.57 107.77C162.52 107.81 162.28 107.58 162.03 107.26C161.78 106.95 161.62 106.66 161.67 106.62C161.72 106.58 161.96 106.81 162.21 107.12C162.46 107.44 162.62 107.73 162.57 107.77Z" />
					<path id="Path 1446" class="shp12" d="M165.04 114.3C164.98 114.28 165.08 113.94 165.26 113.56C165.44 113.18 165.63 112.89 165.71 112.92C165.78 112.94 165.67 113.28 165.48 113.66C165.3 114.04 165.09 114.33 165.04 114.3Z" />
					<path id="Path 1447" class="shp12" d="M159.8 119.69C159.74 119.72 159.53 119.47 159.25 119.21C158.97 118.95 158.71 118.77 158.73 118.7C158.76 118.64 159.1 118.76 159.41 119.04C159.72 119.33 159.85 119.65 159.8 119.69Z" />
					<path id="Path 1448" class="shp12" d="M160.12 125.23C160.12 125.29 159.9 125.35 159.63 125.35C159.36 125.35 159.15 125.29 159.15 125.23C159.15 125.17 159.36 125.12 159.63 125.12C159.9 125.12 160.12 125.17 160.12 125.23Z" />
					<path id="Path 1449" class="shp12" d="M165.51 123.68C165.45 123.65 165.57 123.37 165.65 123.03C165.74 122.68 165.77 122.38 165.84 122.38C165.9 122.37 165.98 122.7 165.88 123.08C165.78 123.47 165.56 123.72 165.51 123.68Z" />
					<path id="Path 1450" class="shp12" d="M170.86 125.55C170.8 125.57 170.64 125.25 170.5 124.85C170.36 124.45 170.29 124.1 170.35 124.09C170.41 124.07 170.57 124.37 170.72 124.78C170.86 125.18 170.92 125.52 170.86 125.55Z" />
					<path id="Path 1451" class="shp12" d="M170.01 133.16C169.95 133.13 170.09 132.76 170.31 132.33C170.53 131.9 170.76 131.57 170.82 131.61C170.89 131.64 170.74 132.01 170.52 132.43C170.29 132.86 170.07 133.2 170.01 133.16Z" />
					<path id="Path 1452" class="shp12" d="M165.13 137.63C165.07 137.65 164.89 137.34 164.72 136.94C164.55 136.54 164.47 136.19 164.53 136.16C164.59 136.14 164.77 136.45 164.93 136.85C165.09 137.25 165.18 137.63 165.13 137.63Z" />
					<path id="Path 1453" class="shp12" d="M159.72 139.36C159.72 139.42 159.53 139.47 159.3 139.47C159.08 139.47 158.9 139.42 158.9 139.36C158.9 139.29 159.08 139.24 159.3 139.24C159.53 139.24 159.72 139.29 159.72 139.36Z" />
					<path id="Path 1454" class="shp12" d="M162.81 146.48C162.76 146.48 162.63 146.23 162.54 145.9C162.45 145.56 162.43 145.27 162.49 145.26C162.55 145.24 162.67 145.5 162.77 145.84C162.86 146.17 162.88 146.44 162.81 146.48Z" />
					<path id="Path 1455" class="shp12" d="M158.9 144.09C158.84 144.06 158.9 143.85 159.04 143.62C159.19 143.4 159.34 143.24 159.39 143.27C159.44 143.3 159.39 143.52 159.24 143.74C159.1 143.97 158.96 144.12 158.9 144.09Z" />
					<path id="Path 1456" class="shp12" d="M158.82 151.93C158.76 151.93 158.67 151.63 158.62 151.24C158.58 150.86 158.59 150.55 158.65 150.54C158.72 150.53 158.8 150.83 158.85 151.22C158.89 151.6 158.88 151.92 158.82 151.93Z" />
				</g>
			</g>
		</g>
	</g>
</svg>